<svg width="257" height="182" viewBox="0 0 257 182" fill="none" xmlns="http://www.w3.org/2000/svg">
<g filter="url(#filter0_d_105_4630)">
<path d="M67.5 129.5L35 98.5L30 68.2822L21 60.5L12 53L158 7.5H166L241.5 74L246 117L198.5 133.5L202 138L174.5 147.5L170 143L105.5 166.5L84.5 146.5L81.5 149L64 132L67.5 129.5Z" fill="url(#paint0_linear_105_4630)" fill-opacity="0.6" shape-rendering="crispEdges"/>
<path d="M105.5 166.5L84.5 146.5L81.5 149L64 132L67.5 129.5L35 98.5L30 68.2822M105.5 166.5L99.5 124M105.5 166.5L170 143L174.5 147.5L202 138L198.5 133.5L246 117L241.5 74M99.5 124L94 126M99.5 124L241.5 74M94 126L134.5 19.5M94 126L30 68.2822M134.5 19.5L12 53M134.5 19.5L166 7.5M12 53L158 7.5H166M12 53L21 60.5L30 68.2822M241.5 74L166 7.5" stroke="#FFC7C7" stroke-width="1.5" shape-rendering="crispEdges"/>
</g>
<defs>
<filter id="filter0_d_105_4630" x="0.461227" y="0.75" width="256.347" height="180.614" filterUnits="userSpaceOnUse" color-interpolation-filters="sRGB">
<feFlood flood-opacity="0" result="BackgroundImageFix"/>
<feColorMatrix in="SourceAlpha" type="matrix" values="0 0 0 0 0 0 0 0 0 0 0 0 0 0 0 0 0 0 127 0" result="hardAlpha"/>
<feOffset dy="4"/>
<feGaussianBlur stdDeviation="5"/>
<feComposite in2="hardAlpha" operator="out"/>
<feColorMatrix type="matrix" values="0 0 0 0 1 0 0 0 0 1 0 0 0 0 1 0 0 0 0.6 0"/>
<feBlend mode="normal" in2="BackgroundImageFix" result="effect1_dropShadow_105_4630"/>
<feBlend mode="normal" in="SourceGraphic" in2="effect1_dropShadow_105_4630" result="shape"/>
</filter>
<linearGradient id="paint0_linear_105_4630" x1="-13.3821" y1="45.3219" x2="248.303" y2="45.093" gradientUnits="userSpaceOnUse">
<stop offset="0.0387986" stop-color="#FF184F"/>
<stop offset="1" stop-color="#FFCA41"/>
</linearGradient>
</defs>
</svg>
