<svg width="238" height="172" viewBox="0 0 238 172" fill="none" xmlns="http://www.w3.org/2000/svg">
<g filter="url(#filter0_d_105_4629)">
<path d="M10.5 46L137 7.5L227 66.5V70.5L218 73.5L220.5 113L168.5 131L172.5 134.5L146.5 144L142 139.5L97 156L92.5 113L17 46.5L10.5 46Z" fill="url(#paint0_linear_105_4629)" fill-opacity="0.6" shape-rendering="crispEdges"/>
<path d="M137 7.5L10.5 46L17 46.5M137 7.5L227 66.5M137 7.5L96.5 23.5M17 46.5L92.5 113M17 46.5L96.5 23.5M92.5 113L227 66.5M92.5 113L97 156L142 139.5L146.5 144L172.5 134.5L168.5 131L220.5 113L218 73.5L227 70.5V66.5M227 66.5L96.5 23.5" stroke="#FFC7C7" stroke-width="1.5" shape-rendering="crispEdges"/>
</g>
<defs>
<filter id="filter0_d_105_4629" x="0.281616" y="0.680176" width="237.468" height="170.355" filterUnits="userSpaceOnUse" color-interpolation-filters="sRGB">
<feFlood flood-opacity="0" result="BackgroundImageFix"/>
<feColorMatrix in="SourceAlpha" type="matrix" values="0 0 0 0 0 0 0 0 0 0 0 0 0 0 0 0 0 0 127 0" result="hardAlpha"/>
<feOffset dy="4"/>
<feGaussianBlur stdDeviation="5"/>
<feComposite in2="hardAlpha" operator="out"/>
<feColorMatrix type="matrix" values="0 0 0 0 1 0 0 0 0 1 0 0 0 0 1 0 0 0 0.6 0"/>
<feBlend mode="normal" in2="BackgroundImageFix" result="effect1_dropShadow_105_4629"/>
<feBlend mode="normal" in="SourceGraphic" in2="effect1_dropShadow_105_4629" result="shape"/>
</filter>
<linearGradient id="paint0_linear_105_4629" x1="-12.9839" y1="42.8242" x2="229.131" y2="42.6145" gradientUnits="userSpaceOnUse">
<stop offset="0.0387986" stop-color="#FF184F"/>
<stop offset="1" stop-color="#FFCA41"/>
</linearGradient>
</defs>
</svg>
