<svg width="231" height="159" viewBox="0 0 231 159" fill="none" xmlns="http://www.w3.org/2000/svg">
<g filter="url(#filter0_d_105_4636)">
<path d="M111 143.5L27 91L25.1422 56.5L12 49L146.5 7.5L157.5 7L218.5 69L220 105L184 118L187.5 121.5L164.5 129.5L160 125.5L111 143.5Z" fill="url(#paint0_linear_105_4636)" fill-opacity="0.6" shape-rendering="crispEdges"/>
<path d="M111 143.5L27 91L25.1422 56.5M111 143.5L109.5 106.5M111 143.5L160 125.5L164.5 129.5L187.5 121.5L184 118L220 105L218.5 69M109.5 106.5L218.5 69M109.5 106.5L107.5 103.5M218.5 69L157.5 7M12 49L125.5 17.5M12 49L146.5 7.5L157.5 7M12 49L25.1422 56.5M125.5 17.5L157.5 7M125.5 17.5L107.5 103.5M107.5 103.5L25.1422 56.5" stroke="#FFC7C7" stroke-width="1.5" shape-rendering="crispEdges"/>
</g>
<defs>
<filter id="filter0_d_105_4636" x="0.125153" y="0.235596" width="230.647" height="158.095" filterUnits="userSpaceOnUse" color-interpolation-filters="sRGB">
<feFlood flood-opacity="0" result="BackgroundImageFix"/>
<feColorMatrix in="SourceAlpha" type="matrix" values="0 0 0 0 0 0 0 0 0 0 0 0 0 0 0 0 0 0 127 0" result="hardAlpha"/>
<feOffset dy="4"/>
<feGaussianBlur stdDeviation="5"/>
<feComposite in2="hardAlpha" operator="out"/>
<feColorMatrix type="matrix" values="0 0 0 0 1 0 0 0 0 1 0 0 0 0 1 0 0 0 0.6 0"/>
<feBlend mode="normal" in2="BackgroundImageFix" result="effect1_dropShadow_105_4636"/>
<feBlend mode="normal" in="SourceGraphic" in2="effect1_dropShadow_105_4636" result="shape"/>
</filter>
<linearGradient id="paint0_linear_105_4636" x1="-10.5619" y1="39.4697" x2="222.047" y2="39.2591" gradientUnits="userSpaceOnUse">
<stop offset="0.0387986" stop-color="#FF184F"/>
<stop offset="1" stop-color="#FFCA41"/>
</linearGradient>
</defs>
</svg>
