<svg width="212" height="140" viewBox="0 0 212 140" fill="none" xmlns="http://www.w3.org/2000/svg">
<g filter="url(#filter0_d_105_4627)">
<path d="M153.5 109.5L115.5 124.5L79.5 107.5L77 109.5L64 103L66 101.5L24.5 81.5V48.9126L13 44L132 7.5L140 7L200.5 59V93L172.5 103.5L176 106.5L159 113L153.5 109.5Z" fill="url(#paint0_linear_105_4627)" fill-opacity="0.6" shape-rendering="crispEdges"/>
<path d="M115.5 124.5L153.5 109.5L159 113L176 106.5L172.5 103.5L200.5 93V59M115.5 124.5L116 88M115.5 124.5L79.5 107.5L77 109.5L64 103L66 101.5L24.5 81.5V48.9126M200.5 59L116 88M200.5 59L140 7M116 88L120.5 13.5M116 88L24.5 48.9126M120.5 13.5L13 44M120.5 13.5L140 7M13 44L24.5 48.9126M13 44L132 7.5L140 7" stroke="#FFC7C7" stroke-width="1.5" shape-rendering="crispEdges"/>
</g>
<defs>
<filter id="filter0_d_105_4627" x="0.819824" y="0.232422" width="210.43" height="139.084" filterUnits="userSpaceOnUse" color-interpolation-filters="sRGB">
<feFlood flood-opacity="0" result="BackgroundImageFix"/>
<feColorMatrix in="SourceAlpha" type="matrix" values="0 0 0 0 0 0 0 0 0 0 0 0 0 0 0 0 0 0 127 0" result="hardAlpha"/>
<feOffset dy="4"/>
<feGaussianBlur stdDeviation="5"/>
<feComposite in2="hardAlpha" operator="out"/>
<feColorMatrix type="matrix" values="0 0 0 0 1 0 0 0 0 1 0 0 0 0 1 0 0 0 0.6 0"/>
<feBlend mode="normal" in2="BackgroundImageFix" result="effect1_dropShadow_105_4627"/>
<feBlend mode="normal" in="SourceGraphic" in2="effect1_dropShadow_105_4627" result="shape"/>
</filter>
<linearGradient id="paint0_linear_105_4627" x1="-7.33823" y1="34.9501" x2="202.345" y2="34.7513" gradientUnits="userSpaceOnUse">
<stop offset="0.0387986" stop-color="#FF184F"/>
<stop offset="1" stop-color="#FFCA41"/>
</linearGradient>
</defs>
</svg>
