<svg width="182" height="125" viewBox="0 0 182 125" fill="none" xmlns="http://www.w3.org/2000/svg">
<g filter="url(#filter0_d_105_4626)">
<path d="M156.5 82L124.5 93.5L128 96L113 102L107.5 99L79.5 109V75L19 23L11 23.5L66 7L169.5 45L158.5 48.6667L156.5 82Z" fill="url(#paint0_linear_105_4626)" fill-opacity="0.6" shape-rendering="crispEdges"/>
<path d="M79.5 75V109L107.5 99L113 102L128 96L124.5 93.5L156.5 82L158.5 48.6667M79.5 75L19 23M79.5 75L158.5 48.6667M169.5 45L66 9L19 23M169.5 45L66 7L11 23.5L19 23M169.5 45L158.5 48.6667" stroke="#FFC7C7" stroke-width="1.5" shape-rendering="crispEdges"/>
</g>
<defs>
<filter id="filter0_d_105_4626" x="0.784485" y="0.209717" width="180.985" height="123.854" filterUnits="userSpaceOnUse" color-interpolation-filters="sRGB">
<feFlood flood-opacity="0" result="BackgroundImageFix"/>
<feColorMatrix in="SourceAlpha" type="matrix" values="0 0 0 0 0 0 0 0 0 0 0 0 0 0 0 0 0 0 127 0" result="hardAlpha"/>
<feOffset dy="4"/>
<feGaussianBlur stdDeviation="5"/>
<feComposite in2="hardAlpha" operator="out"/>
<feColorMatrix type="matrix" values="0 0 0 0 1 0 0 0 0 1 0 0 0 0 1 0 0 0 0.6 0"/>
<feBlend mode="normal" in2="BackgroundImageFix" result="effect1_dropShadow_105_4626"/>
<feBlend mode="normal" in="SourceGraphic" in2="effect1_dropShadow_105_4626" result="shape"/>
</filter>
<linearGradient id="paint0_linear_105_4626" x1="-6.19258" y1="31.2631" x2="171.06" y2="31.0994" gradientUnits="userSpaceOnUse">
<stop offset="0.0387986" stop-color="#FF184F"/>
<stop offset="1" stop-color="#FFCA41"/>
</linearGradient>
</defs>
</svg>
