<svg width="274" height="222" viewBox="0 0 274 222" fill="none" xmlns="http://www.w3.org/2000/svg">
<g filter="url(#filter0_d_105_4625)">
<path d="M188.5 14L149 7L11.2676 70.5L149 30.5L188.5 14Z" fill="url(#paint0_linear_105_4625)" fill-opacity="0.6" shape-rendering="crispEdges"/>
<path d="M149 158.5V30.5L11.2676 70.5L149 158.5Z" fill="url(#paint1_linear_105_4625)" fill-opacity="0.6" shape-rendering="crispEdges"/>
<path d="M263 103.5L188.5 14L149 30.5V158.5L263 103.5Z" fill="url(#paint2_linear_105_4625)" fill-opacity="0.6" shape-rendering="crispEdges"/>
<path d="M263 151V103.5L149 158.5V207L263 151Z" fill="url(#paint3_linear_105_4625)" fill-opacity="0.6" shape-rendering="crispEdges"/>
<path d="M79.5 163.5L149 207V158.5L11.2676 70.5L11.2676 119.579L51 143.5L48 146.5L77 166.5L79.5 163.5Z" fill="url(#paint4_linear_105_4625)" fill-opacity="0.6" shape-rendering="crispEdges"/>
<path d="M11.2676 70.5L149 7L188.5 14M11.2676 70.5L149 158.5M11.2676 70.5L11.2676 119.579L51 143.5L48 146.5L77 166.5L79.5 163.5L149 207M11.2676 70.5L149 30.5M188.5 14L263 103.5M188.5 14L149 30.5M263 103.5V151L149 207M263 103.5L149 158.5M149 207V158.5M149 30.5V158.5" stroke="#FFC7C7" stroke-width="1.5" shape-rendering="crispEdges"/>
</g>
<defs>
<filter id="filter0_d_105_4625" x="0.517578" y="0.220459" width="273.232" height="221.637" filterUnits="userSpaceOnUse" color-interpolation-filters="sRGB">
<feFlood flood-opacity="0" result="BackgroundImageFix"/>
<feColorMatrix in="SourceAlpha" type="matrix" values="0 0 0 0 0 0 0 0 0 0 0 0 0 0 0 0 0 0 127 0" result="hardAlpha"/>
<feOffset dy="4"/>
<feGaussianBlur stdDeviation="5"/>
<feComposite in2="hardAlpha" operator="out"/>
<feColorMatrix type="matrix" values="0 0 0 0 1 0 0 0 0 1 0 0 0 0 1 0 0 0 0.6 0"/>
<feBlend mode="normal" in2="BackgroundImageFix" result="effect1_dropShadow_105_4625"/>
<feBlend mode="normal" in="SourceGraphic" in2="effect1_dropShadow_105_4625" result="shape"/>
</filter>
<linearGradient id="paint0_linear_105_4625" x1="-16.038" y1="54.5747" x2="265.478" y2="54.3641" gradientUnits="userSpaceOnUse">
<stop offset="0.0387986" stop-color="#FF184F"/>
<stop offset="1" stop-color="#FFCA41"/>
</linearGradient>
<linearGradient id="paint1_linear_105_4625" x1="-16.038" y1="54.5747" x2="265.478" y2="54.3641" gradientUnits="userSpaceOnUse">
<stop offset="0.0387986" stop-color="#FF184F"/>
<stop offset="1" stop-color="#FFCA41"/>
</linearGradient>
<linearGradient id="paint2_linear_105_4625" x1="-16.038" y1="54.5747" x2="265.478" y2="54.3641" gradientUnits="userSpaceOnUse">
<stop offset="0.0387986" stop-color="#FF184F"/>
<stop offset="1" stop-color="#FFCA41"/>
</linearGradient>
<linearGradient id="paint3_linear_105_4625" x1="-16.038" y1="54.5747" x2="265.478" y2="54.3641" gradientUnits="userSpaceOnUse">
<stop offset="0.0387986" stop-color="#FF184F"/>
<stop offset="1" stop-color="#FFCA41"/>
</linearGradient>
<linearGradient id="paint4_linear_105_4625" x1="-16.038" y1="54.5747" x2="265.478" y2="54.3641" gradientUnits="userSpaceOnUse">
<stop offset="0.0387986" stop-color="#FF184F"/>
<stop offset="1" stop-color="#FFCA41"/>
</linearGradient>
</defs>
</svg>
