<svg width="268" height="215" viewBox="0 0 268 215" fill="none" xmlns="http://www.w3.org/2000/svg">
<g filter="url(#filter0_d_105_4624)">
<path d="M113.5 7.5L256 92.5L238.373 100.5L234.5 146L126 199V151.5L51.5 62L13 54.5L113.5 7.5Z" fill="url(#paint0_linear_105_4624)" fill-opacity="0.6" shape-rendering="crispEdges"/>
<path d="M51.5 62L114.5 35M51.5 62L13 54.5L113.5 7.5M51.5 62L126 151.5M114.5 35L256 92.5M114.5 35L113.5 7.5M256 92.5L113.5 7.5M256 92.5L238.373 100.5M126 151.5V199L234.5 146L238.373 100.5M126 151.5L238.373 100.5" stroke="#FFC7C7" stroke-width="1.5" shape-rendering="crispEdges"/>
</g>
<defs>
<filter id="filter0_d_105_4624" x="0.596741" y="0.6521" width="267.019" height="213.549" filterUnits="userSpaceOnUse" color-interpolation-filters="sRGB">
<feFlood flood-opacity="0" result="BackgroundImageFix"/>
<feColorMatrix in="SourceAlpha" type="matrix" values="0 0 0 0 0 0 0 0 0 0 0 0 0 0 0 0 0 0 127 0" result="hardAlpha"/>
<feOffset dy="4"/>
<feGaussianBlur stdDeviation="5"/>
<feComposite in2="hardAlpha" operator="out"/>
<feColorMatrix type="matrix" values="0 0 0 0 1 0 0 0 0 1 0 0 0 0 1 0 0 0 0.6 0"/>
<feBlend mode="normal" in2="BackgroundImageFix" result="effect1_dropShadow_105_4624"/>
<feBlend mode="normal" in="SourceGraphic" in2="effect1_dropShadow_105_4624" result="shape"/>
</filter>
<linearGradient id="paint0_linear_105_4624" x1="-13.3583" y1="53.0528" x2="258.392" y2="52.8479" gradientUnits="userSpaceOnUse">
<stop offset="0.0387986" stop-color="#FF184F"/>
<stop offset="1" stop-color="#FFCA41"/>
</linearGradient>
</defs>
</svg>
