<svg width="269" height="189" viewBox="0 0 269 189" fill="none" xmlns="http://www.w3.org/2000/svg">
<g filter="url(#filter0_d_105_4647)">
<path d="M12.5 53L122 10L185.5 7L258 79L254.5 119.5L145 173.5L80 136L76.5 138.5L50 122.5L53 120L21 103L23 59.0955L12.5 53Z" fill="url(#paint0_linear_105_4647)" fill-opacity="0.6" shape-rendering="crispEdges"/>
<path d="M12.5 53L122 10L185.5 7M12.5 53L150 20M12.5 53L23 59.0955M146 130.5L258 79M146 130.5L150 20M146 130.5L145 173.5M146 130.5L23 59.0955M258 79L185.5 7M258 79L254.5 119.5L145 173.5M185.5 7L150 20M145 173.5L80 136L76.5 138.5L50 122.5L53 120L21 103L23 59.0955" stroke="#FFC7C7" stroke-width="1.5" shape-rendering="crispEdges"/>
</g>
<defs>
<filter id="filter0_d_105_4647" x="0.781006" y="0.235352" width="267.996" height="188.115" filterUnits="userSpaceOnUse" color-interpolation-filters="sRGB">
<feFlood flood-opacity="0" result="BackgroundImageFix"/>
<feColorMatrix in="SourceAlpha" type="matrix" values="0 0 0 0 0 0 0 0 0 0 0 0 0 0 0 0 0 0 127 0" result="hardAlpha"/>
<feOffset dy="4"/>
<feGaussianBlur stdDeviation="5"/>
<feComposite in2="hardAlpha" operator="out"/>
<feColorMatrix type="matrix" values="0 0 0 0 1 0 0 0 0 1 0 0 0 0 1 0 0 0 0.6 0"/>
<feBlend mode="normal" in2="BackgroundImageFix" result="effect1_dropShadow_105_4647"/>
<feBlend mode="normal" in="SourceGraphic" in2="effect1_dropShadow_105_4647" result="shape"/>
</filter>
<linearGradient id="paint0_linear_105_4647" x1="-14.1295" y1="46.6059" x2="260.416" y2="46.3654" gradientUnits="userSpaceOnUse">
<stop offset="0.0387986" stop-color="#FF184F"/>
<stop offset="1" stop-color="#FFCA41"/>
</linearGradient>
</defs>
</svg>
