<svg width="270" height="178" viewBox="0 0 270 178" fill="none" xmlns="http://www.w3.org/2000/svg">
<g filter="url(#filter0_d_105_4631)">
<path d="M75.5 49.5L129 26.5L122.5 7.5L11 53L75.5 49.5Z" fill="url(#paint0_linear_105_4631)" fill-opacity="0.6" shape-rendering="crispEdges"/>
<path d="M129 26.5L259 70L122.5 7.5L129 26.5Z" fill="url(#paint1_linear_105_4631)" fill-opacity="0.6" shape-rendering="crispEdges"/>
<path d="M129 26.5L75.5 49.5L148 121.5L259 70L129 26.5Z" fill="url(#paint2_linear_105_4631)" fill-opacity="0.6" shape-rendering="crispEdges"/>
<path d="M259 70L148 121.5L144.5 162.5L242.5 116.5L246 81.5L259 75V70Z" fill="url(#paint3_linear_105_4631)" fill-opacity="0.6" shape-rendering="crispEdges"/>
<path d="M75.5 49.5L129 26.5M75.5 49.5L11 53L122.5 7.5M75.5 49.5L148 121.5M129 26.5L259 70M129 26.5L122.5 7.5M259 70L148 121.5M259 70V75L246 81.5L242.5 116.5L144.5 162.5L148 121.5M259 70L122.5 7.5" stroke="#FFC7C7" stroke-width="1.5" shape-rendering="crispEdges"/>
</g>
<defs>
<filter id="filter0_d_105_4631" x="0.716614" y="0.682861" width="269.033" height="177.048" filterUnits="userSpaceOnUse" color-interpolation-filters="sRGB">
<feFlood flood-opacity="0" result="BackgroundImageFix"/>
<feColorMatrix in="SourceAlpha" type="matrix" values="0 0 0 0 0 0 0 0 0 0 0 0 0 0 0 0 0 0 127 0" result="hardAlpha"/>
<feOffset dy="4"/>
<feGaussianBlur stdDeviation="5"/>
<feComposite in2="hardAlpha" operator="out"/>
<feColorMatrix type="matrix" values="0 0 0 0 1 0 0 0 0 1 0 0 0 0 1 0 0 0 0.6 0"/>
<feBlend mode="normal" in2="BackgroundImageFix" result="effect1_dropShadow_105_4631"/>
<feBlend mode="normal" in="SourceGraphic" in2="effect1_dropShadow_105_4631" result="shape"/>
</filter>
<linearGradient id="paint0_linear_105_4631" x1="-15.9007" y1="44.3704" x2="261.441" y2="44.1067" gradientUnits="userSpaceOnUse">
<stop offset="0.0387986" stop-color="#FF184F"/>
<stop offset="1" stop-color="#FFCA41"/>
</linearGradient>
<linearGradient id="paint1_linear_105_4631" x1="-15.9007" y1="44.3704" x2="261.441" y2="44.1067" gradientUnits="userSpaceOnUse">
<stop offset="0.0387986" stop-color="#FF184F"/>
<stop offset="1" stop-color="#FFCA41"/>
</linearGradient>
<linearGradient id="paint2_linear_105_4631" x1="-15.9007" y1="44.3704" x2="261.441" y2="44.1067" gradientUnits="userSpaceOnUse">
<stop offset="0.0387986" stop-color="#FF184F"/>
<stop offset="1" stop-color="#FFCA41"/>
</linearGradient>
<linearGradient id="paint3_linear_105_4631" x1="-15.9007" y1="44.3704" x2="261.441" y2="44.1067" gradientUnits="userSpaceOnUse">
<stop offset="0.0387986" stop-color="#FF184F"/>
<stop offset="1" stop-color="#FFCA41"/>
</linearGradient>
</defs>
</svg>
