<svg width="241" height="168" viewBox="0 0 241 168" fill="none" xmlns="http://www.w3.org/2000/svg">
<g filter="url(#filter0_d_105_4623)">
<path d="M48.5 112L16 97L19 60.7865L11.5 57.5V53.5L126 7.5L164 10.5L229.5 76L225.5 112L141.5 153L77 124.5L74 126.5L47 114L48.5 112Z" fill="url(#paint0_linear_105_4623)" fill-opacity="0.6" shape-rendering="crispEdges"/>
<path d="M141.5 153L77 124.5L74 126.5L47 114L48.5 112L16 97L19 60.7865M141.5 153L145 114.5M141.5 153L225.5 112L229.5 76M145 114.5L149 116M145 114.5L19 60.7865M11.5 53.5V57.5L19 60.7865M11.5 53.5L138 20.5M11.5 53.5L126 7.5L164 10.5M138 20.5L149 116M138 20.5L164 10.5M149 116L229.5 76M229.5 76L164 10.5" stroke="#FFC7C7" stroke-width="1.5" shape-rendering="crispEdges"/>
</g>
<defs>
<filter id="filter0_d_105_4623" x="0.75" y="0.738525" width="239.535" height="167.088" filterUnits="userSpaceOnUse" color-interpolation-filters="sRGB">
<feFlood flood-opacity="0" result="BackgroundImageFix"/>
<feColorMatrix in="SourceAlpha" type="matrix" values="0 0 0 0 0 0 0 0 0 0 0 0 0 0 0 0 0 0 127 0" result="hardAlpha"/>
<feOffset dy="4"/>
<feGaussianBlur stdDeviation="5"/>
<feComposite in2="hardAlpha" operator="out"/>
<feColorMatrix type="matrix" values="0 0 0 0 1 0 0 0 0 1 0 0 0 0 1 0 0 0 0.6 0"/>
<feBlend mode="normal" in2="BackgroundImageFix" result="effect1_dropShadow_105_4623"/>
<feBlend mode="normal" in="SourceGraphic" in2="effect1_dropShadow_105_4623" result="shape"/>
</filter>
<linearGradient id="paint0_linear_105_4623" x1="-12.1466" y1="42.1106" x2="231.646" y2="41.8935" gradientUnits="userSpaceOnUse">
<stop offset="0.0387986" stop-color="#FF184F"/>
<stop offset="1" stop-color="#FFCA41"/>
</linearGradient>
</defs>
</svg>
