<svg width="20" height="20" viewBox="0 0 20 20" fill="none" xmlns="http://www.w3.org/2000/svg">
<path fill-rule="evenodd" clip-rule="evenodd" d="M16.3722 8.76311C16.1054 11.7635 12.1171 16.8379 10.1563 19C8.07418 17.0633 4.30419 11.7758 4.03128 8.76311C3.64358 4.48331 6.98152 2.86335 7.34241 2.68821C7.35324 2.68295 7.36139 2.679 7.36667 2.67631C7.54816 2.58409 8.94338 2 10.0956 2C11.2478 2 12.3702 2.41672 12.8857 2.70705C13.4011 2.99739 16.7058 5.01266 16.3722 8.76311ZM12.7167 8.55208C12.7167 9.94315 11.589 11.0708 10.1979 11.0708C8.80685 11.0708 7.67917 9.94315 7.67917 8.55208C7.67917 7.16102 8.80685 6.03333 10.1979 6.03333C11.589 6.03333 12.7167 7.16102 12.7167 8.55208ZM13.9167 8.55208C13.9167 10.6059 12.2517 12.2708 10.1979 12.2708C8.14411 12.2708 6.47917 10.6059 6.47917 8.55208C6.47917 6.49827 8.14411 4.83333 10.1979 4.83333C12.2517 4.83333 13.9167 6.49827 13.9167 8.55208Z" fill="#FF3B4C"/>
</svg>
