<svg width="26" height="26" viewBox="0 0 26 26" fill="none" xmlns="http://www.w3.org/2000/svg">
<path d="M12.9023 9.92666V1" stroke="black" stroke-linecap="round" stroke-linejoin="round"/>
<path d="M5.76074 11.712L12.9021 9.92669L20.0434 8.14136" stroke="black" stroke-linecap="round" stroke-linejoin="round"/>
<path d="M15.2827 16.4729L20.0436 8.14136" stroke="black" stroke-linecap="round" stroke-linejoin="round"/>
<path d="M24.8043 16.4729L20.0435 8.14136" stroke="black" stroke-linecap="round" stroke-linejoin="round"/>
<path d="M10.5216 20.0435L5.76074 11.7119" stroke="black" stroke-linecap="round" stroke-linejoin="round"/>
<path d="M1 20.0435L5.76088 11.7119" stroke="black" stroke-linecap="round" stroke-linejoin="round"/>
<path d="M5.76088 24.8043C7.02355 24.8043 8.2345 24.3028 9.12734 23.4099C10.0202 22.5171 10.5218 21.3061 10.5218 20.0435H1C1 21.3061 1.50159 22.5171 2.39443 23.4099C3.28727 24.3028 4.49822 24.8043 5.76088 24.8043Z" stroke="black" stroke-linecap="round" stroke-linejoin="round"/>
<path d="M20.0436 21.2338C21.3063 21.2338 22.5172 20.7322 23.4101 19.8394C24.3029 18.9465 24.8045 17.7356 24.8045 16.4729H15.2827C15.2827 17.7356 15.7843 18.9465 16.6771 19.8394C17.57 20.7322 18.7809 21.2338 20.0436 21.2338Z" stroke="black" stroke-linecap="round" stroke-linejoin="round"/>
</svg>
