<svg width="20" height="20" viewBox="0 0 20 20" fill="none" xmlns="http://www.w3.org/2000/svg">
<path d="M14.1347 10.2314C13.8261 9.92285 12.4433 9.92285 12.1347 10.2314L11.1347 11.2314C10.5515 11.0578 9.82451 10.9212 9.13471 10.2314C8.44491 9.54166 8.30834 8.81467 8.13471 8.23144L9.13471 7.23144C9.4433 6.92285 9.4433 5.54002 9.13471 5.23144L6.13471 2.23144C5.82611 1.92285 5.4433 1.92285 5.13471 2.23144L2.13471 4.23144C1.8348 4.53134 2.1284 5.81079 2.13471 6.23144C2.15286 7.35528 2.05823 11.1551 5.13471 14.2314C8.21119 17.3078 12.01 17.2125 13.1347 17.2314C13.1387 17.2314 14.1308 17.2314 14.1347 17.2314C14.5514 17.2314 14.8364 17.5298 15.1347 17.2314L17.1347 14.2314C17.4433 13.9229 17.4433 13.54 17.1347 13.2314L14.1347 10.2314ZM14.1347 15.2314C13.1497 15.2149 9.78263 14.88 7.13471 12.2314C4.47811 9.57494 4.15049 6.19665 4.13471 5.23144L5.13471 4.23144L7.13471 6.23144L6.13471 7.23144C5.94608 7.41927 6.08025 7.971 6.13471 8.23144C6.15365 8.3222 6.82456 9.92134 8.13471 11.2314C9.44486 12.5415 11.0439 13.2125 11.1347 13.2314C11.3975 13.2875 11.9469 13.4201 12.1347 13.2314L13.1347 12.2314L15.1347 14.2314L14.1347 15.2314Z" fill="#FF3B4C"/>
</svg>
