<svg width="26" height="26" viewBox="0 0 26 26" fill="none" xmlns="http://www.w3.org/2000/svg">
<path d="M21.8835 7.33228H4.11079C3.49732 7.33228 3 7.82959 3 8.44307V20.6618C3 21.2753 3.49732 21.7726 4.11079 21.7726H21.8835C22.4969 21.7726 22.9943 21.2753 22.9943 20.6618V8.44307C22.9943 7.82959 22.4969 7.33228 21.8835 7.33228Z" stroke="black" stroke-linecap="round" stroke-linejoin="round"/>
<path d="M5.22168 7.33238L6.42522 4H10.6829L11.8864 7.33238H5.22168Z" stroke="black" stroke-linecap="round" stroke-linejoin="round"/>
<path d="M15.774 18.4403C17.9212 18.4403 19.6618 16.6997 19.6618 14.5526C19.6618 12.4054 17.9212 10.6648 15.774 10.6648C13.6268 10.6648 11.8862 12.4054 11.8862 14.5526C11.8862 16.6997 13.6268 18.4403 15.774 18.4403Z" stroke="black" stroke-linecap="round" stroke-linejoin="round"/>
<path d="M19.6621 5.11084V7.33242" stroke="black" stroke-linecap="round"/>
</svg>
