<svg width="26" height="26" viewBox="0 0 26 26" fill="none" xmlns="http://www.w3.org/2000/svg">
<path d="M3.22423 13.9023C4.64372 14.0196 9.34537 15.0926 9.34537 16.8779C9.34537 18.6632 6.81427 18.0616 5.67268 18.0681C4.69269 17.9872 2 18.0681 2 19.8534C2 21.6388 6.2848 22.829 10.5696 23.4241C14.8544 24.0192 21.5876 24.0192 21.5876 24.0192" stroke="black" stroke-linecap="round" stroke-linejoin="round"/>
<path d="M3.22412 10.3316L6.8968 6.76099" stroke="black" stroke-linecap="round" stroke-linejoin="round"/>
<path d="M15.4663 2H21.5874L24.0359 4.38044" stroke="black" stroke-linecap="round" stroke-linejoin="round"/>
<path d="M16.6908 6.76099L20.3635 10.3316H10.5697L6.89697 6.76099H16.6908Z" stroke="black" stroke-linecap="round" stroke-linejoin="round"/>
<path d="M24.0361 11.5216V7.95093" stroke="black" stroke-linecap="round" stroke-linejoin="round"/>
<path d="M14.2422 16.2828V13.9023" stroke="black" stroke-linecap="round" stroke-linejoin="round"/>
<path d="M17.915 18.6632V13.9023" stroke="black" stroke-linecap="round" stroke-linejoin="round"/>
</svg>
