<svg width="276" height="70" viewBox="0 0 276 70" fill="none" xmlns="http://www.w3.org/2000/svg">
<path d="M1 43.9766H76.4471" stroke="url(#paint0_linear_582_837)" stroke-width="4"/>
<path d="M6.99731 45.9766V61.6843" stroke="url(#paint1_linear_582_837)" stroke-width="4"/>
<path d="M8.94656 36.28L8.79356 33.101L14.4886 27.1H17.5486L12.4146 32.625L10.8846 34.257L8.94656 36.28ZM6.48156 39V27.1H9.21856V39H6.48156ZM14.6246 39L10.3916 33.815L12.1936 31.86L17.8376 39H14.6246ZM24.5839 39.204C23.6432 39.204 22.7706 39.051 21.9659 38.745C21.1726 38.439 20.4812 38.0083 19.8919 37.453C19.3139 36.8977 18.8606 36.246 18.5319 35.498C18.2146 34.75 18.0559 33.934 18.0559 33.05C18.0559 32.166 18.2146 31.35 18.5319 30.602C18.8606 29.854 19.3196 29.2023 19.9089 28.647C20.4982 28.0917 21.1896 27.661 21.9829 27.355C22.7762 27.049 23.6376 26.896 24.5669 26.896C25.5076 26.896 26.3689 27.049 27.1509 27.355C27.9442 27.661 28.6299 28.0917 29.2079 28.647C29.7972 29.2023 30.2562 29.854 30.5849 30.602C30.9136 31.3387 31.0779 32.1547 31.0779 33.05C31.0779 33.934 30.9136 34.7557 30.5849 35.515C30.2562 36.263 29.7972 36.9147 29.2079 37.47C28.6299 38.014 27.9442 38.439 27.1509 38.745C26.3689 39.051 25.5132 39.204 24.5839 39.204ZM24.5669 36.858C25.0996 36.858 25.5869 36.7673 26.0289 36.586C26.4822 36.4047 26.8789 36.144 27.2189 35.804C27.5589 35.464 27.8196 35.0617 28.0009 34.597C28.1936 34.1323 28.2899 33.6167 28.2899 33.05C28.2899 32.4833 28.1936 31.9677 28.0009 31.503C27.8196 31.0383 27.5589 30.636 27.2189 30.296C26.8902 29.956 26.4992 29.6953 26.0459 29.514C25.5926 29.3327 25.0996 29.242 24.5669 29.242C24.0342 29.242 23.5412 29.3327 23.0879 29.514C22.6459 29.6953 22.2549 29.956 21.9149 30.296C21.5749 30.636 21.3086 31.0383 21.1159 31.503C20.9346 31.9677 20.8439 32.4833 20.8439 33.05C20.8439 33.6053 20.9346 34.121 21.1159 34.597C21.3086 35.0617 21.5692 35.464 21.8979 35.804C22.2379 36.144 22.6346 36.4047 23.0879 36.586C23.5412 36.7673 24.0342 36.858 24.5669 36.858ZM35.8507 31.894H41.5797V34.036H35.8507V31.894ZM36.0547 36.79H42.5317V39H33.3177V27.1H42.3107V29.31H36.0547V36.79ZM44.8929 39V27.1H47.1709L54.1919 35.668H53.0869V27.1H55.8069V39H53.5459L46.5079 30.432H47.6129V39H44.8929ZM58.7924 39V27.1H61.5464V39H58.7924ZM70.2865 39.204C69.3459 39.204 68.4789 39.0567 67.6855 38.762C66.9035 38.456 66.2179 38.0253 65.6285 37.47C65.0505 36.9147 64.5972 36.263 64.2685 35.515C63.9512 34.767 63.7925 33.9453 63.7925 33.05C63.7925 32.1547 63.9512 31.333 64.2685 30.585C64.5972 29.837 65.0562 29.1853 65.6455 28.63C66.2349 28.0747 66.9262 27.6497 67.7195 27.355C68.5129 27.049 69.3855 26.896 70.3375 26.896C71.3915 26.896 72.3379 27.0717 73.1765 27.423C74.0265 27.7743 74.7405 28.2843 75.3185 28.953L73.5505 30.585C73.1199 30.1317 72.6495 29.7973 72.1395 29.582C71.6295 29.3553 71.0742 29.242 70.4735 29.242C69.8955 29.242 69.3685 29.3327 68.8925 29.514C68.4165 29.6953 68.0029 29.956 67.6515 30.296C67.3115 30.636 67.0452 31.0383 66.8525 31.503C66.6712 31.9677 66.5805 32.4833 66.5805 33.05C66.5805 33.6053 66.6712 34.1153 66.8525 34.58C67.0452 35.0447 67.3115 35.4527 67.6515 35.804C68.0029 36.144 68.4109 36.4047 68.8755 36.586C69.3515 36.7673 69.8729 36.858 70.4395 36.858C70.9835 36.858 71.5105 36.773 72.0205 36.603C72.5419 36.4217 73.0462 36.1213 73.5335 35.702L75.0975 37.691C74.4515 38.1783 73.6979 38.5523 72.8365 38.813C71.9865 39.0737 71.1365 39.204 70.2865 39.204ZM72.5815 37.334V32.863H75.0975V37.691L72.5815 37.334Z" fill="black"/>
<path d="M54.4329 5L55.3071 3.20118L54.4145 2.76738L53.5292 3.21583L54.4329 5ZM23.0363 23.1452L55.3366 6.78417L53.5292 3.21583L21.2288 19.5769L23.0363 23.1452ZM53.5587 6.79882L87.2242 23.1599L88.9726 19.5623L55.3071 3.20118L53.5587 6.79882ZM80.8962 18.1799V62.0696H84.8962V18.1799H80.8962Z" fill="url(#paint2_linear_582_837)"/>
<path d="M21.6672 49.1H24.4212V61H21.6672V49.1ZM16.2612 61H13.5072V49.1H16.2612V61ZM21.8712 56.121H16.0572V53.792H21.8712V56.121ZM33.0167 61.204C32.076 61.204 31.2034 61.051 30.3987 60.745C29.6054 60.439 28.914 60.0083 28.3247 59.453C27.7467 58.8977 27.2934 58.246 26.9647 57.498C26.6474 56.75 26.4887 55.934 26.4887 55.05C26.4887 54.166 26.6474 53.35 26.9647 52.602C27.2934 51.854 27.7524 51.2023 28.3417 50.647C28.931 50.0917 29.6224 49.661 30.4157 49.355C31.209 49.049 32.0704 48.896 32.9997 48.896C33.9404 48.896 34.8017 49.049 35.5837 49.355C36.377 49.661 37.0627 50.0917 37.6407 50.647C38.23 51.2023 38.689 51.854 39.0177 52.602C39.3464 53.3387 39.5107 54.1547 39.5107 55.05C39.5107 55.934 39.3464 56.7557 39.0177 57.515C38.689 58.263 38.23 58.9147 37.6407 59.47C37.0627 60.014 36.377 60.439 35.5837 60.745C34.8017 61.051 33.946 61.204 33.0167 61.204ZM32.9997 58.858C33.5324 58.858 34.0197 58.7673 34.4617 58.586C34.915 58.4047 35.3117 58.144 35.6517 57.804C35.9917 57.464 36.2524 57.0617 36.4337 56.597C36.6264 56.1323 36.7227 55.6167 36.7227 55.05C36.7227 54.4833 36.6264 53.9677 36.4337 53.503C36.2524 53.0383 35.9917 52.636 35.6517 52.296C35.323 51.956 34.932 51.6953 34.4787 51.514C34.0254 51.3327 33.5324 51.242 32.9997 51.242C32.467 51.242 31.974 51.3327 31.5207 51.514C31.0787 51.6953 30.6877 51.956 30.3477 52.296C30.0077 52.636 29.7414 53.0383 29.5487 53.503C29.3674 53.9677 29.2767 54.4833 29.2767 55.05C29.2767 55.6053 29.3674 56.121 29.5487 56.597C29.7414 57.0617 30.002 57.464 30.3307 57.804C30.6707 58.144 31.0674 58.4047 31.5207 58.586C31.974 58.7673 32.467 58.858 32.9997 58.858ZM46.8674 61.204C45.1788 61.204 43.8584 60.7337 42.9064 59.793C41.9544 58.8523 41.4784 57.5093 41.4784 55.764V49.1H44.2324V55.662C44.2324 56.7953 44.4648 57.6113 44.9294 58.11C45.3941 58.6087 46.0458 58.858 46.8844 58.858C47.7231 58.858 48.3748 58.6087 48.8394 58.11C49.3041 57.6113 49.5364 56.7953 49.5364 55.662V49.1H52.2564V55.764C52.2564 57.5093 51.7804 58.8523 50.8284 59.793C49.8764 60.7337 48.5561 61.204 46.8674 61.204ZM58.8879 61.204C57.9359 61.204 57.0236 61.0793 56.1509 60.83C55.2782 60.5693 54.5756 60.235 54.0429 59.827L54.9779 57.753C55.4879 58.1157 56.0886 58.416 56.7799 58.654C57.4826 58.8807 58.1909 58.994 58.9049 58.994C59.4489 58.994 59.8852 58.943 60.2139 58.841C60.5539 58.7277 60.8032 58.5747 60.9619 58.382C61.1206 58.1893 61.1999 57.9683 61.1999 57.719C61.1999 57.4017 61.0752 57.1523 60.8259 56.971C60.5766 56.7783 60.2479 56.6253 59.8399 56.512C59.4319 56.3873 58.9786 56.274 58.4799 56.172C57.9926 56.0587 57.4996 55.9227 57.0009 55.764C56.5136 55.6053 56.0659 55.4013 55.6579 55.152C55.2499 54.9027 54.9156 54.574 54.6549 54.166C54.4056 53.758 54.2809 53.2367 54.2809 52.602C54.2809 51.922 54.4622 51.3043 54.8249 50.749C55.1989 50.1823 55.7542 49.7347 56.4909 49.406C57.2389 49.066 58.1739 48.896 59.2959 48.896C60.0439 48.896 60.7806 48.9867 61.5059 49.168C62.2312 49.338 62.8716 49.5987 63.4269 49.95L62.5769 52.041C62.0216 51.7237 61.4662 51.4913 60.9109 51.344C60.3556 51.1853 59.8116 51.106 59.2789 51.106C58.7462 51.106 58.3099 51.1683 57.9699 51.293C57.6299 51.4177 57.3862 51.582 57.2389 51.786C57.0916 51.9787 57.0179 52.2053 57.0179 52.466C57.0179 52.772 57.1426 53.0213 57.3919 53.214C57.6412 53.3953 57.9699 53.5427 58.3779 53.656C58.7859 53.7693 59.2336 53.8827 59.7209 53.996C60.2196 54.1093 60.7126 54.2397 61.1999 54.387C61.6986 54.5343 62.1519 54.7327 62.5599 54.982C62.9679 55.2313 63.2966 55.56 63.5459 55.968C63.8066 56.376 63.9369 56.8917 63.9369 57.515C63.9369 58.1837 63.7499 58.7957 63.3759 59.351C63.0019 59.9063 62.4409 60.354 61.6929 60.694C60.9562 61.034 60.0212 61.204 58.8879 61.204ZM68.3517 53.894H74.0807V56.036H68.3517V53.894ZM68.5557 58.79H75.0327V61H65.8187V49.1H74.8117V51.31H68.5557V58.79Z" fill="black"/>
<path d="M102.61 36V15H121.75V36H116.92V17.85L118.03 18.96H106.33L107.44 17.85V36H102.61ZM129.386 36L138.746 15H143.546L152.936 36H147.836L140.156 17.46H142.076L134.366 36H129.386ZM134.066 31.5L135.356 27.81H146.156L147.476 31.5H134.066ZM174.921 15H179.781V36H174.921V15ZM165.381 36H160.521V15H165.381V36ZM175.281 27.39H165.021V23.28H175.281V27.39ZM194.312 23.46H204.422V27.24H194.312V23.46ZM194.672 32.1H206.102V36H189.842V15H205.712V18.9H194.672V32.1ZM215.038 36.33C214.678 36.33 214.298 36.3 213.898 36.24C213.518 36.18 213.098 36.1 212.638 36L212.938 31.89C213.218 31.97 213.508 32.01 213.808 32.01C214.628 32.01 215.268 31.68 215.728 31.02C216.188 30.34 216.518 29.37 216.718 28.11C216.918 26.85 217.048 25.32 217.108 23.52L217.408 15H233.548V36H228.748V17.85L229.858 18.96H220.588L221.578 17.79L221.398 23.34C221.338 25.4 221.198 27.23 220.978 28.83C220.758 30.43 220.418 31.79 219.958 32.91C219.498 34.03 218.868 34.88 218.068 35.46C217.268 36.04 216.258 36.33 215.038 36.33ZM253.762 21.9C256.302 21.9 258.262 22.47 259.642 23.61C261.022 24.73 261.712 26.42 261.712 28.68C261.712 31.08 260.942 32.9 259.402 34.14C257.882 35.38 255.772 36 253.072 36H243.592V15H248.422V21.9H253.762ZM252.802 32.4C254.042 32.4 255.022 32.09 255.742 31.47C256.462 30.85 256.822 29.95 256.822 28.77C256.822 27.61 256.462 26.78 255.742 26.28C255.042 25.76 254.062 25.5 252.802 25.5H248.422V32.4H252.802ZM100.12 54L104.8 43.5H107.2L111.895 54H109.345L105.505 44.73H106.465L102.61 54H100.12ZM102.46 51.75L103.105 49.905H108.505L109.165 51.75H102.46ZM120.456 52.92V45.48H116.856L116.811 47.01C116.781 47.66 116.736 48.275 116.676 48.855C116.626 49.435 116.546 49.965 116.436 50.445C116.326 50.915 116.181 51.315 116.001 51.645C115.831 51.975 115.616 52.21 115.356 52.35L112.761 52.02C113.121 52.03 113.416 51.905 113.646 51.645C113.886 51.385 114.076 51.02 114.216 50.55C114.356 50.07 114.456 49.51 114.516 48.87C114.586 48.23 114.636 47.535 114.666 46.785L114.786 43.5H122.856V52.92H120.456ZM112.416 56.175L112.431 52.02H124.326V56.175H122.076V54H114.666V56.175H112.416ZM126.112 54V43.5H128.122L132.592 50.91H131.527L135.922 43.5H137.932L137.947 54H135.667L135.652 46.995H136.087L132.562 52.89H131.482L127.882 46.995H128.392V54H126.112ZM140.705 54V43.5H143.12V50.34L148.13 43.5H150.41V54H148.01V47.175L143 54H140.705ZM160.375 43.5H162.805V54H160.375V43.5ZM155.605 54H153.175V43.5H155.605V54ZM160.555 49.695H155.425V47.64H160.555V49.695ZM165.585 54V43.5H168V50.34L173.01 43.5H175.29V54H172.89V47.175L167.88 54H165.585ZM183.02 54.18C182.21 54.18 181.455 54.05 180.755 53.79C180.065 53.52 179.465 53.14 178.955 52.65C178.445 52.16 178.045 51.585 177.755 50.925C177.475 50.265 177.335 49.54 177.335 48.75C177.335 47.96 177.475 47.235 177.755 46.575C178.045 45.915 178.445 45.34 178.955 44.85C179.475 44.36 180.08 43.985 180.77 43.725C181.46 43.455 182.215 43.32 183.035 43.32C183.945 43.32 184.765 43.48 185.495 43.8C186.235 44.11 186.855 44.57 187.355 45.18L185.795 46.62C185.435 46.21 185.035 45.905 184.595 45.705C184.155 45.495 183.675 45.39 183.155 45.39C182.665 45.39 182.215 45.47 181.805 45.63C181.395 45.79 181.04 46.02 180.74 46.32C180.44 46.62 180.205 46.975 180.035 47.385C179.875 47.795 179.795 48.25 179.795 48.75C179.795 49.25 179.875 49.705 180.035 50.115C180.205 50.525 180.44 50.88 180.74 51.18C181.04 51.48 181.395 51.71 181.805 51.87C182.215 52.03 182.665 52.11 183.155 52.11C183.675 52.11 184.155 52.01 184.595 51.81C185.035 51.6 185.435 51.285 185.795 50.865L187.355 52.305C186.855 52.915 186.235 53.38 185.495 53.7C184.765 54.02 183.94 54.18 183.02 54.18ZM191.251 54V44.925L191.806 45.48H187.906V43.5H197.011V45.48H193.111L193.651 44.925V54H191.251ZM198.687 54V43.5H203.232C204.172 43.5 204.982 43.655 205.662 43.965C206.342 44.265 206.867 44.7 207.237 45.27C207.607 45.84 207.792 46.52 207.792 47.31C207.792 48.09 207.607 48.765 207.237 49.335C206.867 49.905 206.342 50.345 205.662 50.655C204.982 50.955 204.172 51.105 203.232 51.105H200.037L201.117 50.01V54H198.687ZM201.117 50.28L200.037 49.125H203.097C203.847 49.125 204.407 48.965 204.777 48.645C205.147 48.325 205.332 47.88 205.332 47.31C205.332 46.73 205.147 46.28 204.777 45.96C204.407 45.64 203.847 45.48 203.097 45.48H200.037L201.117 44.325V50.28ZM207.832 54L212.512 43.5H214.912L219.607 54H217.057L213.217 44.73H214.177L210.322 54H207.832ZM210.172 51.75L210.817 49.905H216.217L216.877 51.75H210.172ZM222.887 54V44.925L223.442 45.48H219.542V43.5H228.647V45.48H224.747L225.287 44.925V54H222.887ZM235.202 54.18C234.372 54.18 233.602 54.045 232.892 53.775C232.192 53.505 231.582 53.125 231.062 52.635C230.552 52.145 230.152 51.57 229.862 50.91C229.582 50.25 229.442 49.53 229.442 48.75C229.442 47.97 229.582 47.25 229.862 46.59C230.152 45.93 230.557 45.355 231.077 44.865C231.597 44.375 232.207 43.995 232.907 43.725C233.607 43.455 234.367 43.32 235.187 43.32C236.017 43.32 236.777 43.455 237.467 43.725C238.167 43.995 238.772 44.375 239.282 44.865C239.802 45.355 240.207 45.93 240.497 46.59C240.787 47.24 240.932 47.96 240.932 48.75C240.932 49.53 240.787 50.255 240.497 50.925C240.207 51.585 239.802 52.16 239.282 52.65C238.772 53.13 238.167 53.505 237.467 53.775C236.777 54.045 236.022 54.18 235.202 54.18ZM235.187 52.11C235.657 52.11 236.087 52.03 236.477 51.87C236.877 51.71 237.227 51.48 237.527 51.18C237.827 50.88 238.057 50.525 238.217 50.115C238.387 49.705 238.472 49.25 238.472 48.75C238.472 48.25 238.387 47.795 238.217 47.385C238.057 46.975 237.827 46.62 237.527 46.32C237.237 46.02 236.892 45.79 236.492 45.63C236.092 45.47 235.657 45.39 235.187 45.39C234.717 45.39 234.282 45.47 233.882 45.63C233.492 45.79 233.147 46.02 232.847 46.32C232.547 46.62 232.312 46.975 232.142 47.385C231.982 47.795 231.902 48.25 231.902 48.75C231.902 49.24 231.982 49.695 232.142 50.115C232.312 50.525 232.542 50.88 232.832 51.18C233.132 51.48 233.482 51.71 233.882 51.87C234.282 52.03 234.717 52.11 235.187 52.11ZM242.954 54V43.5H247.499C248.439 43.5 249.249 43.655 249.929 43.965C250.609 44.265 251.134 44.7 251.504 45.27C251.874 45.84 252.059 46.52 252.059 47.31C252.059 48.09 251.874 48.765 251.504 49.335C251.134 49.905 250.609 50.345 249.929 50.655C249.249 50.955 248.439 51.105 247.499 51.105H244.304L245.384 50.01V54H242.954ZM245.384 50.28L244.304 49.125H247.364C248.114 49.125 248.674 48.965 249.044 48.645C249.414 48.325 249.599 47.88 249.599 47.31C249.599 46.73 249.414 46.28 249.044 45.96C248.674 45.64 248.114 45.48 247.364 45.48H244.304L245.384 44.325V50.28ZM252.099 54L256.779 43.5H259.179L263.874 54H261.324L257.484 44.73H258.444L254.589 54H252.099ZM254.439 51.75L255.084 49.905H260.484L261.144 51.75H254.439Z" fill="black"/>
<defs>
<linearGradient id="paint0_linear_582_837" x1="-9.48245" y1="44" x2="81.8497" y2="44" gradientUnits="userSpaceOnUse">
<stop stop-color="#FF184F"/>
<stop offset="1" stop-color="#FFCA41"/>
</linearGradient>
<linearGradient id="paint1_linear_582_837" x1="7.13533" y1="39.0001" x2="7.09218" y2="62.0002" gradientUnits="userSpaceOnUse">
<stop stop-color="#FF184F"/>
<stop offset="0.197917" stop-color="#FF3B4C"/>
<stop offset="1" stop-color="#FFCA41"/>
</linearGradient>
<linearGradient id="paint2_linear_582_837" x1="-28.9232" y1="18.71" x2="83.8898" y2="18.6137" gradientUnits="userSpaceOnUse">
<stop offset="0.0387986" stop-color="#FF184F"/>
<stop offset="1" stop-color="#FFCA41"/>
</linearGradient>
</defs>
</svg>
