<svg width="28" height="28" viewBox="0 0 28 28" fill="none" xmlns="http://www.w3.org/2000/svg">
<path d="M13.9998 13.9708C12.7165 13.9708 11.6665 13.5625 10.8498 12.7458C10.0332 11.9292 9.62484 10.8792 9.62484 9.59583C9.62484 8.31249 10.0332 7.26249 10.8498 6.44583C11.6665 5.62916 12.7165 5.22083 13.9998 5.22083C15.2832 5.22083 16.3332 5.62916 17.1498 6.44583C17.9665 7.26249 18.3748 8.31249 18.3748 9.59583C18.3748 10.8792 17.9665 11.9292 17.1498 12.7458C16.3332 13.5625 15.2832 13.9708 13.9998 13.9708ZM4.6665 23.3333V20.5917C4.6665 19.8528 4.85123 19.2208 5.22067 18.6958C5.59011 18.1708 6.0665 17.7722 6.64984 17.5C7.95261 16.9167 9.20192 16.4792 10.3978 16.1875C11.5936 15.8958 12.7943 15.75 13.9998 15.75C15.2054 15.75 16.4012 15.9007 17.5873 16.2021C18.7734 16.5035 20.0179 16.9361 21.3207 17.5C21.9234 17.7722 22.4096 18.1708 22.779 18.6958C23.1484 19.2208 23.3332 19.8528 23.3332 20.5917V23.3333H4.6665ZM6.4165 21.5833H21.5832V20.5917C21.5832 20.2805 21.4908 19.984 21.3061 19.7021C21.1214 19.4201 20.8929 19.2111 20.6207 19.075C19.3762 18.4722 18.2387 18.059 17.2082 17.8354C16.1776 17.6118 15.1082 17.5 13.9998 17.5C12.8915 17.5 11.8123 17.6118 10.7623 17.8354C9.71234 18.059 8.57484 18.4722 7.34984 19.075C7.07762 19.2111 6.854 19.4201 6.679 19.7021C6.504 19.984 6.4165 20.2805 6.4165 20.5917V21.5833ZM13.9998 12.2208C14.7582 12.2208 15.3853 11.9729 15.8811 11.4771C16.3769 10.9812 16.6248 10.3542 16.6248 9.59583C16.6248 8.83749 16.3769 8.21041 15.8811 7.71458C15.3853 7.21874 14.7582 6.97083 13.9998 6.97083C13.2415 6.97083 12.6144 7.21874 12.1186 7.71458C11.6228 8.21041 11.3748 8.83749 11.3748 9.59583C11.3748 10.3542 11.6228 10.9812 12.1186 11.4771C12.6144 11.9729 13.2415 12.2208 13.9998 12.2208Z" fill="black"/>
</svg>
