<svg width="25" height="25" viewBox="0 0 25 25" fill="none" xmlns="http://www.w3.org/2000/svg">
<path d="M6.79671 21.875C6.38005 21.875 6.01546 21.7187 5.70296 21.4062C5.39046 21.0937 5.23421 20.7292 5.23421 20.3125V5.46875H4.1665V3.90625H9.06234V3.125H15.9373V3.90625H20.8332V5.46875H19.7655V20.3125C19.7655 20.7292 19.6092 21.0937 19.2967 21.4062C18.9842 21.7187 18.6196 21.875 18.203 21.875H6.79671ZM18.203 5.46875H6.79671V20.3125H18.203V5.46875ZM9.55713 18.0729H11.1196V7.68229H9.55713V18.0729ZM13.88 18.0729H15.4425V7.68229H13.88V18.0729ZM6.79671 5.46875V20.3125V5.46875Z" fill="black"/>
</svg>
