<svg width="35" height="35" viewBox="0 0 35 35" fill="none" xmlns="http://www.w3.org/2000/svg">
<path d="M9.51579 30.625C8.93245 30.625 8.42204 30.4062 7.98454 29.9688C7.54704 29.5312 7.32829 29.0208 7.32829 28.4375V7.65625H5.8335V5.46875H12.6877V4.375H22.3127V5.46875H29.1668V7.65625H27.672V28.4375C27.672 29.0208 27.4533 29.5312 27.0158 29.9688C26.5783 30.4062 26.0679 30.625 25.4845 30.625H9.51579ZM25.4845 7.65625H9.51579V28.4375H25.4845V7.65625ZM13.3804 25.3021H15.5679V10.7552H13.3804V25.3021ZM19.4325 25.3021H21.62V10.7552H19.4325V25.3021ZM9.51579 7.65625V28.4375V7.65625Z" fill="#FCFCFC"/>
</svg>
