<svg width="353" height="224" viewBox="0 0 353 224" fill="none" xmlns="http://www.w3.org/2000/svg">
<g filter="url(#filter0_d_373_694)">
<path d="M96.6666 61.4639L168 31.6368L159.333 6.99707L10.6666 66.0028L96.6666 61.4639Z" fill="url(#paint0_linear_373_694)" fill-opacity="0.6" shape-rendering="crispEdges"/>
<path d="M168 31.6368L341.333 88.0489L159.333 6.99707L168 31.6368Z" fill="url(#paint1_linear_373_694)" fill-opacity="0.6" shape-rendering="crispEdges"/>
<path d="M168 31.6368L96.6666 61.4639L193.333 154.836L341.333 88.0489L168 31.6368Z" fill="url(#paint2_linear_373_694)" fill-opacity="0.6" shape-rendering="crispEdges"/>
<path d="M341.333 88.0489L193.333 154.836L188.667 208.006L319.333 148.352L324 102.962L341.333 94.5331V88.0489Z" fill="url(#paint3_linear_373_694)" fill-opacity="0.6" shape-rendering="crispEdges"/>
<path d="M96.6666 61.4639L168 31.6368M96.6666 61.4639L10.6666 66.0028L159.333 6.99707M96.6666 61.4639L193.333 154.836M168 31.6368L341.333 88.0489M168 31.6368L159.333 6.99707M341.333 88.0489L193.333 154.836M341.333 88.0489V94.5331L324 102.962L319.333 148.352L188.667 208.006L193.333 154.836M341.333 88.0489L159.333 6.99707" stroke="#FFC7C7" stroke-width="1.5" shape-rendering="crispEdges"/>
</g>
<defs>
<filter id="filter0_d_373_694" x="0.389893" y="0.183594" width="351.693" height="223.039" filterUnits="userSpaceOnUse" color-interpolation-filters="sRGB">
<feFlood flood-opacity="0" result="BackgroundImageFix"/>
<feColorMatrix in="SourceAlpha" type="matrix" values="0 0 0 0 0 0 0 0 0 0 0 0 0 0 0 0 0 0 127 0" result="hardAlpha"/>
<feOffset dy="4"/>
<feGaussianBlur stdDeviation="5"/>
<feComposite in2="hardAlpha" operator="out"/>
<feColorMatrix type="matrix" values="0 0 0 0 1 0 0 0 0 1 0 0 0 0 1 0 0 0 0.6 0"/>
<feBlend mode="normal" in2="BackgroundImageFix" result="effect1_dropShadow_373_694"/>
<feBlend mode="normal" in="SourceGraphic" in2="effect1_dropShadow_373_694" result="shape"/>
</filter>
<linearGradient id="paint0_linear_373_694" x1="-25.201" y1="54.8117" x2="344.588" y2="54.4502" gradientUnits="userSpaceOnUse">
<stop offset="0.0387986" stop-color="#FF184F"/>
<stop offset="1" stop-color="#FFCA41"/>
</linearGradient>
<linearGradient id="paint1_linear_373_694" x1="-25.201" y1="54.8117" x2="344.588" y2="54.4502" gradientUnits="userSpaceOnUse">
<stop offset="0.0387986" stop-color="#FF184F"/>
<stop offset="1" stop-color="#FFCA41"/>
</linearGradient>
<linearGradient id="paint2_linear_373_694" x1="-25.201" y1="54.8117" x2="344.588" y2="54.4502" gradientUnits="userSpaceOnUse">
<stop offset="0.0387986" stop-color="#FF184F"/>
<stop offset="1" stop-color="#FFCA41"/>
</linearGradient>
<linearGradient id="paint3_linear_373_694" x1="-25.201" y1="54.8117" x2="344.588" y2="54.4502" gradientUnits="userSpaceOnUse">
<stop offset="0.0387986" stop-color="#FF184F"/>
<stop offset="1" stop-color="#FFCA41"/>
</linearGradient>
</defs>
</svg>
