<svg width="359" height="282" viewBox="0 0 359 282" fill="none" xmlns="http://www.w3.org/2000/svg">
<g filter="url(#filter0_d_373_688)">
<path d="M248 16.7001L195.333 7.62231L11.6901 89.971L195.333 38.0978L248 16.7001Z" fill="url(#paint0_linear_373_688)" fill-opacity="0.6" shape-rendering="crispEdges"/>
<path d="M195.333 204.092V38.0978L11.6901 89.971L195.333 204.092Z" fill="url(#paint1_linear_373_688)" fill-opacity="0.6" shape-rendering="crispEdges"/>
<path d="M347.333 132.766L248 16.7001L195.333 38.0978V204.092L347.333 132.766Z" fill="url(#paint2_linear_373_688)" fill-opacity="0.6" shape-rendering="crispEdges"/>
<path d="M347.333 194.366V132.766L195.333 204.092V266.988L347.333 194.366Z" fill="url(#paint3_linear_373_688)" fill-opacity="0.6" shape-rendering="crispEdges"/>
<path d="M102.667 210.576L195.333 266.988V204.092L11.6901 89.971L11.6901 153.619L64.6666 184.64L60.6666 188.53L99.3333 214.467L102.667 210.576Z" fill="url(#paint4_linear_373_688)" fill-opacity="0.6" shape-rendering="crispEdges"/>
<path d="M11.6901 89.971L195.333 7.62231L248 16.7001M11.6901 89.971L195.333 204.092M11.6901 89.971L11.6901 153.619L64.6666 184.64L60.6666 188.53L99.3333 214.467L102.667 210.576L195.333 266.988M11.6901 89.971L195.333 38.0978M248 16.7001L347.333 132.766M248 16.7001L195.333 38.0978M347.333 132.766V194.366L195.333 266.988M347.333 132.766L195.333 204.092M195.333 266.988V204.092M195.333 38.0978V204.092" stroke="#FFC7C7" stroke-width="1.5" shape-rendering="crispEdges"/>
</g>
<defs>
<filter id="filter0_d_373_688" x="0.940063" y="0.844238" width="357.143" height="280.996" filterUnits="userSpaceOnUse" color-interpolation-filters="sRGB">
<feFlood flood-opacity="0" result="BackgroundImageFix"/>
<feColorMatrix in="SourceAlpha" type="matrix" values="0 0 0 0 0 0 0 0 0 0 0 0 0 0 0 0 0 0 127 0" result="hardAlpha"/>
<feOffset dy="4"/>
<feGaussianBlur stdDeviation="5"/>
<feComposite in2="hardAlpha" operator="out"/>
<feColorMatrix type="matrix" values="0 0 0 0 1 0 0 0 0 1 0 0 0 0 1 0 0 0 0.6 0"/>
<feBlend mode="normal" in2="BackgroundImageFix" result="effect1_dropShadow_373_688"/>
<feBlend mode="normal" in="SourceGraphic" in2="effect1_dropShadow_373_688" result="shape"/>
</filter>
<linearGradient id="paint0_linear_373_688" x1="-24.7173" y1="69.3186" x2="350.637" y2="69.03" gradientUnits="userSpaceOnUse">
<stop offset="0.0387986" stop-color="#FF184F"/>
<stop offset="1" stop-color="#FFCA41"/>
</linearGradient>
<linearGradient id="paint1_linear_373_688" x1="-24.7173" y1="69.3186" x2="350.637" y2="69.03" gradientUnits="userSpaceOnUse">
<stop offset="0.0387986" stop-color="#FF184F"/>
<stop offset="1" stop-color="#FFCA41"/>
</linearGradient>
<linearGradient id="paint2_linear_373_688" x1="-24.7173" y1="69.3186" x2="350.637" y2="69.03" gradientUnits="userSpaceOnUse">
<stop offset="0.0387986" stop-color="#FF184F"/>
<stop offset="1" stop-color="#FFCA41"/>
</linearGradient>
<linearGradient id="paint3_linear_373_688" x1="-24.7173" y1="69.3186" x2="350.637" y2="69.03" gradientUnits="userSpaceOnUse">
<stop offset="0.0387986" stop-color="#FF184F"/>
<stop offset="1" stop-color="#FFCA41"/>
</linearGradient>
<linearGradient id="paint4_linear_373_688" x1="-24.7173" y1="69.3186" x2="350.637" y2="69.03" gradientUnits="userSpaceOnUse">
<stop offset="0.0387986" stop-color="#FF184F"/>
<stop offset="1" stop-color="#FFCA41"/>
</linearGradient>
</defs>
</svg>
