<svg width="301" height="199" viewBox="0 0 301 199" fill="none" xmlns="http://www.w3.org/2000/svg">
<g filter="url(#filter0_d_373_695)">
<path d="M144.666 183.87L32.6655 115.787L30.1885 71.0461L12.6655 61.3199L191.999 7.50144L206.666 6.85303L287.999 87.2565L289.999 133.942L241.999 150.801L246.666 155.34L215.999 165.715L209.999 160.527L144.666 183.87Z" fill="url(#paint0_linear_373_695)" fill-opacity="0.6" shape-rendering="crispEdges"/>
<path d="M144.666 183.87L32.6655 115.787L30.1885 71.0461M144.666 183.87L142.666 135.888M144.666 183.87L209.999 160.527L215.999 165.715L246.666 155.34L241.999 150.801L289.999 133.942L287.999 87.2565M142.666 135.888L287.999 87.2565M142.666 135.888L139.999 131.997M287.999 87.2565L206.666 6.85303M12.6655 61.3199L163.999 20.4697M12.6655 61.3199L191.999 7.50144L206.666 6.85303M12.6655 61.3199L30.1885 71.0461M163.999 20.4697L206.666 6.85303M163.999 20.4697L139.999 131.997M139.999 131.997L30.1885 71.0461" stroke="#FFC7C7" stroke-width="1.5" shape-rendering="crispEdges"/>
</g>
<defs>
<filter id="filter0_d_373_695" x="0.746826" y="0.0893555" width="300.025" height="198.607" filterUnits="userSpaceOnUse" color-interpolation-filters="sRGB">
<feFlood flood-opacity="0" result="BackgroundImageFix"/>
<feColorMatrix in="SourceAlpha" type="matrix" values="0 0 0 0 0 0 0 0 0 0 0 0 0 0 0 0 0 0 127 0" result="hardAlpha"/>
<feOffset dy="4"/>
<feGaussianBlur stdDeviation="5"/>
<feComposite in2="hardAlpha" operator="out"/>
<feColorMatrix type="matrix" values="0 0 0 0 1 0 0 0 0 1 0 0 0 0 1 0 0 0 0.6 0"/>
<feBlend mode="normal" in2="BackgroundImageFix" result="effect1_dropShadow_373_695"/>
<feBlend mode="normal" in="SourceGraphic" in2="effect1_dropShadow_373_695" result="shape"/>
</filter>
<linearGradient id="paint0_linear_373_695" x1="-17.417" y1="48.9607" x2="292.729" y2="48.672" gradientUnits="userSpaceOnUse">
<stop offset="0.0387986" stop-color="#FF184F"/>
<stop offset="1" stop-color="#FFCA41"/>
</linearGradient>
</defs>
</svg>
