<svg width="100" height="100" viewBox="0 0 100 100" fill="none" xmlns="http://www.w3.org/2000/svg">
<rect width="100" height="100" rx="50" fill="white"/>
<path d="M5 54.9766H80.4471" stroke="url(#paint0_linear_217_676)" stroke-width="4"/>
<path d="M10.9976 56.9766V72.6843" stroke="url(#paint1_linear_217_676)" stroke-width="4"/>
<path d="M14.8163 45.325L13.2183 46.991V50H10.4813V38.1H13.2183V43.659L18.4883 38.1H21.5483L16.6183 43.404L21.8373 50H18.6243L14.8163 45.325ZM28.5667 50.204C27.3313 50.204 26.215 49.9377 25.2177 49.405C24.2317 48.8723 23.4553 48.1413 22.8887 47.212C22.3333 46.2713 22.0557 45.2173 22.0557 44.05C22.0557 42.8827 22.3333 41.8343 22.8887 40.905C23.4553 39.9643 24.2317 39.2277 25.2177 38.695C26.215 38.1623 27.3313 37.896 28.5667 37.896C29.802 37.896 30.9127 38.1623 31.8987 38.695C32.8847 39.2277 33.661 39.9643 34.2277 40.905C34.7943 41.8343 35.0777 42.8827 35.0777 44.05C35.0777 45.2173 34.7943 46.2713 34.2277 47.212C33.661 48.1413 32.8847 48.8723 31.8987 49.405C30.9127 49.9377 29.802 50.204 28.5667 50.204ZM28.5667 47.858C29.2693 47.858 29.904 47.6993 30.4707 47.382C31.0373 47.0533 31.4793 46.6 31.7967 46.022C32.1253 45.444 32.2897 44.7867 32.2897 44.05C32.2897 43.3133 32.1253 42.656 31.7967 42.078C31.4793 41.5 31.0373 41.0523 30.4707 40.735C29.904 40.4063 29.2693 40.242 28.5667 40.242C27.864 40.242 27.2293 40.4063 26.6627 40.735C26.096 41.0523 25.6483 41.5 25.3197 42.078C25.0023 42.656 24.8437 43.3133 24.8437 44.05C24.8437 44.7867 25.0023 45.444 25.3197 46.022C25.6483 46.6 26.096 47.0533 26.6627 47.382C27.2293 47.6993 27.864 47.858 28.5667 47.858ZM46.5314 47.79V50H37.3174V38.1H46.3104V40.31H40.0544V42.894H45.5794V45.036H40.0544V47.79H46.5314ZM59.8067 38.1V50H57.5457L51.6127 42.775V50H48.8927V38.1H51.1707L57.0867 45.325V38.1H59.8067ZM62.7922 38.1H65.5462V50H62.7922V38.1ZM76.5813 43.863H79.0973V48.691C78.4513 49.1783 77.7033 49.5523 76.8533 49.813C76.0033 50.0737 75.1476 50.204 74.2863 50.204C73.051 50.204 71.9403 49.9433 70.9543 49.422C69.9683 48.8893 69.192 48.1583 68.6253 47.229C68.07 46.2883 67.7923 45.2287 67.7923 44.05C67.7923 42.8713 68.07 41.8173 68.6253 40.888C69.192 39.9473 69.974 39.2163 70.9713 38.695C71.9686 38.1623 73.0906 37.896 74.3373 37.896C75.38 37.896 76.3263 38.0717 77.1763 38.423C78.0263 38.7743 78.7403 39.2843 79.3183 39.953L77.5503 41.585C76.7003 40.6897 75.6746 40.242 74.4733 40.242C73.714 40.242 73.0396 40.4007 72.4503 40.718C71.861 41.0353 71.402 41.483 71.0733 42.061C70.7446 42.639 70.5803 43.302 70.5803 44.05C70.5803 44.7867 70.7446 45.444 71.0733 46.022C71.402 46.6 71.8553 47.0533 72.4333 47.382C73.0226 47.6993 73.6913 47.858 74.4393 47.858C75.2326 47.858 75.9466 47.688 76.5813 47.348V43.863Z" fill="black"/>
<path d="M58.4327 16L59.3069 14.2012L58.4143 13.7674L57.5289 14.2158L58.4327 16ZM27.0361 34.1452L59.3364 17.7842L57.5289 14.2158L25.2286 30.5769L27.0361 34.1452ZM57.5585 17.7988L91.2239 34.1599L92.9724 30.5623L59.3069 14.2012L57.5585 17.7988ZM84.8959 29.1799V73.0696H88.8959V29.1799H84.8959Z" fill="url(#paint2_linear_217_676)"/>
<path d="M28.4207 60.1V72H25.6667V67.121H20.2607V72H17.5067V60.1H20.2607V64.792H25.6667V60.1H28.4207ZM36.9992 72.204C35.7639 72.204 34.6475 71.9377 33.6502 71.405C32.6642 70.8723 31.8879 70.1413 31.3212 69.212C30.7659 68.2713 30.4882 67.2173 30.4882 66.05C30.4882 64.8827 30.7659 63.8343 31.3212 62.905C31.8879 61.9643 32.6642 61.2277 33.6502 60.695C34.6475 60.1623 35.7639 59.896 36.9992 59.896C38.2345 59.896 39.3452 60.1623 40.3312 60.695C41.3172 61.2277 42.0935 61.9643 42.6602 62.905C43.2269 63.8343 43.5102 64.8827 43.5102 66.05C43.5102 67.2173 43.2269 68.2713 42.6602 69.212C42.0935 70.1413 41.3172 70.8723 40.3312 71.405C39.3452 71.9377 38.2345 72.204 36.9992 72.204ZM36.9992 69.858C37.7019 69.858 38.3365 69.6993 38.9032 69.382C39.4699 69.0533 39.9119 68.6 40.2292 68.022C40.5579 67.444 40.7222 66.7867 40.7222 66.05C40.7222 65.3133 40.5579 64.656 40.2292 64.078C39.9119 63.5 39.4699 63.0523 38.9032 62.735C38.3365 62.4063 37.7019 62.242 36.9992 62.242C36.2965 62.242 35.6619 62.4063 35.0952 62.735C34.5285 63.0523 34.0809 63.5 33.7522 64.078C33.4349 64.656 33.2762 65.3133 33.2762 66.05C33.2762 66.7867 33.4349 67.444 33.7522 68.022C34.0809 68.6 34.5285 69.0533 35.0952 69.382C35.6619 69.6993 36.2965 69.858 36.9992 69.858ZM50.8669 72.204C49.1669 72.204 47.8409 71.7337 46.8889 70.793C45.9483 69.8523 45.4779 68.5093 45.4779 66.764V60.1H48.2319V66.662C48.2319 68.7927 49.1159 69.858 50.8839 69.858C51.7453 69.858 52.4026 69.603 52.8559 69.093C53.3093 68.5717 53.5359 67.7613 53.5359 66.662V60.1H56.2559V66.764C56.2559 68.5093 55.7799 69.8523 54.8279 70.793C53.8873 71.7337 52.5669 72.204 50.8669 72.204ZM62.8874 72.204C61.9467 72.204 61.0344 72.0793 60.1504 71.83C59.2777 71.5693 58.5751 71.235 58.0424 70.827L58.9774 68.753C59.4874 69.127 60.0937 69.4273 60.7964 69.654C61.4991 69.8807 62.2017 69.994 62.9044 69.994C63.6864 69.994 64.2644 69.8807 64.6384 69.654C65.0124 69.416 65.1994 69.1043 65.1994 68.719C65.1994 68.4357 65.0861 68.2033 64.8594 68.022C64.6441 67.8293 64.3607 67.6763 64.0094 67.563C63.6694 67.4497 63.2047 67.325 62.6154 67.189C61.7087 66.9737 60.9664 66.7583 60.3884 66.543C59.8104 66.3277 59.3117 65.982 58.8924 65.506C58.4844 65.03 58.2804 64.3953 58.2804 63.602C58.2804 62.9107 58.4674 62.2873 58.8414 61.732C59.2154 61.1653 59.7764 60.7177 60.5244 60.389C61.2837 60.0603 62.2074 59.896 63.2954 59.896C64.0547 59.896 64.7971 59.9867 65.5224 60.168C66.2477 60.3493 66.8824 60.61 67.4264 60.95L66.5764 63.041C65.4771 62.4177 64.3777 62.106 63.2784 62.106C62.5077 62.106 61.9354 62.2307 61.5614 62.48C61.1987 62.7293 61.0174 63.058 61.0174 63.466C61.0174 63.874 61.2271 64.18 61.6464 64.384C62.0771 64.5767 62.7287 64.7693 63.6014 64.962C64.5081 65.1773 65.2504 65.3927 65.8284 65.608C66.4064 65.8233 66.8994 66.1633 67.3074 66.628C67.7267 67.0927 67.9364 67.7217 67.9364 68.515C67.9364 69.195 67.7437 69.8183 67.3584 70.385C66.9844 70.9403 66.4177 71.3823 65.6584 71.711C64.8991 72.0397 63.9754 72.204 62.8874 72.204ZM79.0322 69.79V72H69.8182V60.1H78.8112V62.31H72.5552V64.894H78.0802V67.036H72.5552V69.79H79.0322Z" fill="black"/>
<defs>
<linearGradient id="paint0_linear_217_676" x1="-5.48245" y1="55" x2="85.8497" y2="55" gradientUnits="userSpaceOnUse">
<stop stop-color="#FF184F"/>
<stop offset="1" stop-color="#FFCA41"/>
</linearGradient>
<linearGradient id="paint1_linear_217_676" x1="11.1356" y1="50.0001" x2="11.0924" y2="73.0002" gradientUnits="userSpaceOnUse">
<stop stop-color="#FF184F"/>
<stop offset="0.197917" stop-color="#FF3B4C"/>
<stop offset="1" stop-color="#FFCA41"/>
</linearGradient>
<linearGradient id="paint2_linear_217_676" x1="-24.9235" y1="29.71" x2="87.8895" y2="29.6137" gradientUnits="userSpaceOnUse">
<stop offset="0.0387986" stop-color="#FF184F"/>
<stop offset="1" stop-color="#FFCA41"/>
</linearGradient>
</defs>
</svg>
