<svg width="90" height="70" viewBox="0 0 90 70" fill="none" xmlns="http://www.w3.org/2000/svg">
<path d="M1 43.9766H76.4471" stroke="url(#paint0_linear_103_1831)" stroke-width="4"/>
<path d="M6.99756 45.9766V61.6843" stroke="url(#paint1_linear_103_1831)" stroke-width="4"/>
<path d="M10.8163 34.325L9.21831 35.991V39H6.48131V27.1H9.21831V32.659L14.4883 27.1H17.5483L12.6183 32.404L17.8373 39H14.6243L10.8163 34.325ZM24.5667 39.204C23.3313 39.204 22.215 38.9377 21.2177 38.405C20.2317 37.8723 19.4553 37.1413 18.8887 36.212C18.3333 35.2713 18.0557 34.2173 18.0557 33.05C18.0557 31.8827 18.3333 30.8343 18.8887 29.905C19.4553 28.9643 20.2317 28.2277 21.2177 27.695C22.215 27.1623 23.3313 26.896 24.5667 26.896C25.802 26.896 26.9127 27.1623 27.8987 27.695C28.8847 28.2277 29.661 28.9643 30.2277 29.905C30.7943 30.8343 31.0777 31.8827 31.0777 33.05C31.0777 34.2173 30.7943 35.2713 30.2277 36.212C29.661 37.1413 28.8847 37.8723 27.8987 38.405C26.9127 38.9377 25.802 39.204 24.5667 39.204ZM24.5667 36.858C25.2693 36.858 25.904 36.6993 26.4707 36.382C27.0373 36.0533 27.4793 35.6 27.7967 35.022C28.1253 34.444 28.2897 33.7867 28.2897 33.05C28.2897 32.3133 28.1253 31.656 27.7967 31.078C27.4793 30.5 27.0373 30.0523 26.4707 29.735C25.904 29.4063 25.2693 29.242 24.5667 29.242C23.864 29.242 23.2293 29.4063 22.6627 29.735C22.096 30.0523 21.6483 30.5 21.3197 31.078C21.0023 31.656 20.8437 32.3133 20.8437 33.05C20.8437 33.7867 21.0023 34.444 21.3197 35.022C21.6483 35.6 22.096 36.0533 22.6627 36.382C23.2293 36.6993 23.864 36.858 24.5667 36.858ZM42.5314 36.79V39H33.3174V27.1H42.3104V29.31H36.0544V31.894H41.5794V34.036H36.0544V36.79H42.5314ZM55.8067 27.1V39H53.5457L47.6127 31.775V39H44.8927V27.1H47.1707L53.0867 34.325V27.1H55.8067ZM58.7922 27.1H61.5462V39H58.7922V27.1ZM72.5813 32.863H75.0973V37.691C74.4513 38.1783 73.7033 38.5523 72.8533 38.813C72.0033 39.0737 71.1476 39.204 70.2863 39.204C69.051 39.204 67.9403 38.9433 66.9543 38.422C65.9683 37.8893 65.192 37.1583 64.6253 36.229C64.07 35.2883 63.7923 34.2287 63.7923 33.05C63.7923 31.8713 64.07 30.8173 64.6253 29.888C65.192 28.9473 65.974 28.2163 66.9713 27.695C67.9686 27.1623 69.0906 26.896 70.3373 26.896C71.38 26.896 72.3263 27.0717 73.1763 27.423C74.0263 27.7743 74.7403 28.2843 75.3183 28.953L73.5503 30.585C72.7003 29.6897 71.6746 29.242 70.4733 29.242C69.714 29.242 69.0396 29.4007 68.4503 29.718C67.861 30.0353 67.402 30.483 67.0733 31.061C66.7446 31.639 66.5803 32.302 66.5803 33.05C66.5803 33.7867 66.7446 34.444 67.0733 35.022C67.402 35.6 67.8553 36.0533 68.4333 36.382C69.0226 36.6993 69.6913 36.858 70.4393 36.858C71.2326 36.858 71.9466 36.688 72.5813 36.348V32.863Z" fill="black"/>
<path d="M54.4327 5L55.3069 3.20118L54.4143 2.76738L53.5289 3.21583L54.4327 5ZM23.0361 23.1452L55.3364 6.78417L53.5289 3.21583L21.2286 19.5769L23.0361 23.1452ZM53.5585 6.79882L87.2239 23.1599L88.9724 19.5623L55.3069 3.20118L53.5585 6.79882ZM80.8959 18.1799V62.0696H84.8959V18.1799H80.8959Z" fill="url(#paint2_linear_103_1831)"/>
<path d="M24.4207 49.1V61H21.6667V56.121H16.2607V61H13.5067V49.1H16.2607V53.792H21.6667V49.1H24.4207ZM32.9992 61.204C31.7639 61.204 30.6475 60.9377 29.6502 60.405C28.6642 59.8723 27.8879 59.1413 27.3212 58.212C26.7659 57.2713 26.4882 56.2173 26.4882 55.05C26.4882 53.8827 26.7659 52.8343 27.3212 51.905C27.8879 50.9643 28.6642 50.2277 29.6502 49.695C30.6475 49.1623 31.7639 48.896 32.9992 48.896C34.2345 48.896 35.3452 49.1623 36.3312 49.695C37.3172 50.2277 38.0935 50.9643 38.6602 51.905C39.2269 52.8343 39.5102 53.8827 39.5102 55.05C39.5102 56.2173 39.2269 57.2713 38.6602 58.212C38.0935 59.1413 37.3172 59.8723 36.3312 60.405C35.3452 60.9377 34.2345 61.204 32.9992 61.204ZM32.9992 58.858C33.7019 58.858 34.3365 58.6993 34.9032 58.382C35.4699 58.0533 35.9119 57.6 36.2292 57.022C36.5579 56.444 36.7222 55.7867 36.7222 55.05C36.7222 54.3133 36.5579 53.656 36.2292 53.078C35.9119 52.5 35.4699 52.0523 34.9032 51.735C34.3365 51.4063 33.7019 51.242 32.9992 51.242C32.2965 51.242 31.6619 51.4063 31.0952 51.735C30.5285 52.0523 30.0809 52.5 29.7522 53.078C29.4349 53.656 29.2762 54.3133 29.2762 55.05C29.2762 55.7867 29.4349 56.444 29.7522 57.022C30.0809 57.6 30.5285 58.0533 31.0952 58.382C31.6619 58.6993 32.2965 58.858 32.9992 58.858ZM46.8669 61.204C45.1669 61.204 43.8409 60.7337 42.8889 59.793C41.9483 58.8523 41.4779 57.5093 41.4779 55.764V49.1H44.2319V55.662C44.2319 57.7927 45.1159 58.858 46.8839 58.858C47.7453 58.858 48.4026 58.603 48.8559 58.093C49.3093 57.5717 49.5359 56.7613 49.5359 55.662V49.1H52.2559V55.764C52.2559 57.5093 51.7799 58.8523 50.8279 59.793C49.8873 60.7337 48.5669 61.204 46.8669 61.204ZM58.8874 61.204C57.9467 61.204 57.0344 61.0793 56.1504 60.83C55.2777 60.5693 54.5751 60.235 54.0424 59.827L54.9774 57.753C55.4874 58.127 56.0937 58.4273 56.7964 58.654C57.4991 58.8807 58.2017 58.994 58.9044 58.994C59.6864 58.994 60.2644 58.8807 60.6384 58.654C61.0124 58.416 61.1994 58.1043 61.1994 57.719C61.1994 57.4357 61.0861 57.2033 60.8594 57.022C60.6441 56.8293 60.3607 56.6763 60.0094 56.563C59.6694 56.4497 59.2047 56.325 58.6154 56.189C57.7087 55.9737 56.9664 55.7583 56.3884 55.543C55.8104 55.3277 55.3117 54.982 54.8924 54.506C54.4844 54.03 54.2804 53.3953 54.2804 52.602C54.2804 51.9107 54.4674 51.2873 54.8414 50.732C55.2154 50.1653 55.7764 49.7177 56.5244 49.389C57.2837 49.0603 58.2074 48.896 59.2954 48.896C60.0547 48.896 60.7971 48.9867 61.5224 49.168C62.2477 49.3493 62.8824 49.61 63.4264 49.95L62.5764 52.041C61.4771 51.4177 60.3777 51.106 59.2784 51.106C58.5077 51.106 57.9354 51.2307 57.5614 51.48C57.1987 51.7293 57.0174 52.058 57.0174 52.466C57.0174 52.874 57.2271 53.18 57.6464 53.384C58.0771 53.5767 58.7287 53.7693 59.6014 53.962C60.5081 54.1773 61.2504 54.3927 61.8284 54.608C62.4064 54.8233 62.8994 55.1633 63.3074 55.628C63.7267 56.0927 63.9364 56.7217 63.9364 57.515C63.9364 58.195 63.7437 58.8183 63.3584 59.385C62.9844 59.9403 62.4177 60.3823 61.6584 60.711C60.8991 61.0397 59.9754 61.204 58.8874 61.204ZM75.0322 58.79V61H65.8182V49.1H74.8112V51.31H68.5552V53.894H74.0802V56.036H68.5552V58.79H75.0322Z" fill="black"/>
<defs>
<linearGradient id="paint0_linear_103_1831" x1="-9.48245" y1="44" x2="81.8497" y2="44" gradientUnits="userSpaceOnUse">
<stop stop-color="#FF184F"/>
<stop offset="1" stop-color="#FFCA41"/>
</linearGradient>
<linearGradient id="paint1_linear_103_1831" x1="7.13557" y1="39.0001" x2="7.09243" y2="62.0002" gradientUnits="userSpaceOnUse">
<stop stop-color="#FF184F"/>
<stop offset="0.197917" stop-color="#FF3B4C"/>
<stop offset="1" stop-color="#FFCA41"/>
</linearGradient>
<linearGradient id="paint2_linear_103_1831" x1="-28.9235" y1="18.71" x2="83.8895" y2="18.6137" gradientUnits="userSpaceOnUse">
<stop offset="0.0387986" stop-color="#FF184F"/>
<stop offset="1" stop-color="#FFCA41"/>
</linearGradient>
</defs>
</svg>
