<svg width="420" height="220" viewBox="0 0 420 220" fill="none" xmlns="http://www.w3.org/2000/svg">
<path d="M5 33.2432L4.71225 31.2641L3 31.513V33.2432H5ZM5 214H3V216H5V214ZM199.263 5L199.523 3.01692L199.249 2.98106L198.975 3.02081L199.263 5ZM415 214V216H417V214H415ZM59.933 212H5V216H59.933V212ZM7 214V33.2432H3V214H7ZM413 55.547V214H417V55.547H413ZM415 212H363.063V216H415V212ZM5.28775 35.2224L199.551 6.97919L198.975 3.02081L4.71225 31.2641L5.28775 35.2224ZM199.003 6.98308L414.74 35.2263L415.26 31.2602L199.523 3.01692L199.003 6.98308Z" fill="url(#paint0_linear_103_1833)"/>
<defs>
<linearGradient id="paint0_linear_103_1833" x1="-39.4729" y1="54.7155" x2="419.035" y2="54.1811" gradientUnits="userSpaceOnUse">
<stop offset="0.0387986" stop-color="#FF184F"/>
<stop offset="1" stop-color="#FFCA41"/>
</linearGradient>
</defs>
</svg>
