<svg width="414" height="233" viewBox="0 0 414 233" fill="none" xmlns="http://www.w3.org/2000/svg">
<path d="M90.7709 85.552H82.7069V106H76.9469V85.552H68.9189V80.8H90.7709V85.552ZM110.231 100.6H98.5312L96.2992 106H90.3232L101.555 80.8H107.315L118.583 106H112.463L110.231 100.6ZM108.395 96.172L104.399 86.524L100.403 96.172H108.395ZM143.376 80.8L132.648 100.744C131.616 102.664 130.368 104.116 128.904 105.1C127.464 106.084 125.892 106.576 124.188 106.576C122.868 106.576 121.5 106.288 120.084 105.712L121.488 101.284C122.496 101.596 123.336 101.752 124.008 101.752C124.728 101.752 125.376 101.584 125.952 101.248C126.528 100.888 127.056 100.336 127.536 99.592L127.752 99.304L117.816 80.8H124.044L130.74 94.336L137.652 80.8H143.376ZM169.26 80.8V106H163.428V95.668H151.98V106H146.148V80.8H151.98V90.736H163.428V80.8H169.26ZM180.109 80.8L185.329 88.432L190.549 80.8H197.389L189.001 92.86L198.073 106H191.197L185.329 97.648L179.533 106H172.801L181.801 93.112L173.377 80.8H180.109ZM217.317 100.6H205.617L203.385 106H197.409L208.641 80.8H214.401L225.669 106H219.549L217.317 100.6ZM215.481 96.172L211.485 86.524L207.489 96.172H215.481ZM250.462 80.8L239.734 100.744C238.702 102.664 237.454 104.116 235.99 105.1C234.55 106.084 232.978 106.576 231.274 106.576C229.954 106.576 228.586 106.288 227.17 105.712L228.574 101.284C229.582 101.596 230.422 101.752 231.094 101.752C231.814 101.752 232.462 101.584 233.038 101.248C233.614 100.888 234.142 100.336 234.622 99.592L234.838 99.304L224.902 80.8H231.13L237.826 94.336L244.738 80.8H250.462ZM264.833 106.432C262.265 106.432 259.937 105.88 257.849 104.776C255.785 103.648 254.153 102.1 252.953 100.132C251.777 98.14 251.189 95.896 251.189 93.4C251.189 90.904 251.777 88.672 252.953 86.704C254.153 84.712 255.785 83.164 257.849 82.06C259.937 80.932 262.277 80.368 264.869 80.368C267.053 80.368 269.021 80.752 270.773 81.52C272.549 82.288 274.037 83.392 275.237 84.832L271.493 88.288C269.789 86.32 267.677 85.336 265.157 85.336C263.597 85.336 262.205 85.684 260.981 86.38C259.757 87.052 258.797 88 258.101 89.224C257.429 90.448 257.093 91.84 257.093 93.4C257.093 94.96 257.429 96.352 258.101 97.576C258.797 98.8 259.757 99.76 260.981 100.456C262.205 101.128 263.597 101.464 265.157 101.464C267.677 101.464 269.789 100.468 271.493 98.476L275.237 101.932C274.037 103.396 272.549 104.512 270.773 105.28C268.997 106.048 267.017 106.432 264.833 106.432ZM312.202 80.8V106H306.406V85.552H295.03V106H289.234V80.8H312.202ZM330.472 106.432C327.856 106.432 325.492 105.868 323.38 104.74C321.292 103.612 319.648 102.064 318.448 100.096C317.272 98.104 316.684 95.872 316.684 93.4C316.684 90.928 317.272 88.708 318.448 86.74C319.648 84.748 321.292 83.188 323.38 82.06C325.492 80.932 327.856 80.368 330.472 80.368C333.088 80.368 335.44 80.932 337.528 82.06C339.616 83.188 341.26 84.748 342.46 86.74C343.66 88.708 344.26 90.928 344.26 93.4C344.26 95.872 343.66 98.104 342.46 100.096C341.26 102.064 339.616 103.612 337.528 104.74C335.44 105.868 333.088 106.432 330.472 106.432ZM330.472 101.464C331.96 101.464 333.304 101.128 334.504 100.456C335.704 99.76 336.64 98.8 337.312 97.576C338.008 96.352 338.356 94.96 338.356 93.4C338.356 91.84 338.008 90.448 337.312 89.224C336.64 88 335.704 87.052 334.504 86.38C333.304 85.684 331.96 85.336 330.472 85.336C328.984 85.336 327.64 85.684 326.44 86.38C325.24 87.052 324.292 88 323.596 89.224C322.924 90.448 322.588 91.84 322.588 93.4C322.588 94.96 322.924 96.352 323.596 97.576C324.292 98.8 325.24 99.76 326.44 100.456C327.64 101.128 328.984 101.464 330.472 101.464ZM71.7611 145.248V155.328H66.3971V150H45.3371V124.8H51.1331V145.248H62.3651V124.8H68.1611V145.248H71.7611ZM95.1186 145.32V150H75.6066V124.8H94.6506V129.48H81.4026V134.952H93.1026V139.488H81.4026V145.32H95.1186ZM122.941 124.8V150H117.109V139.668H105.661V150H99.8293V124.8H105.661V134.736H117.109V124.8H122.941ZM148.767 145.32V150H129.255V124.8H148.299V129.48H135.051V134.952H146.751V139.488H135.051V145.32H148.767ZM173.429 139.848H169.397V150H163.601V124.8H169.397V134.988H173.573L180.197 124.8H186.353L178.109 136.968L186.605 150H179.981L173.429 139.848ZM206.797 136.86C208.333 137.316 209.509 138.06 210.325 139.092C211.141 140.124 211.549 141.396 211.549 142.908C211.549 145.14 210.697 146.88 208.993 148.128C207.313 149.376 204.901 150 201.757 150H189.337V124.8H201.073C204.001 124.8 206.281 125.364 207.913 126.492C209.545 127.62 210.361 129.228 210.361 131.316C210.361 132.564 210.049 133.668 209.425 134.628C208.801 135.564 207.925 136.308 206.797 136.86ZM195.133 135.24H200.569C201.841 135.24 202.801 134.988 203.449 134.484C204.097 133.956 204.421 133.188 204.421 132.18C204.421 131.196 204.085 130.44 203.413 129.912C202.765 129.384 201.817 129.12 200.569 129.12H195.133V135.24ZM201.541 145.68C204.277 145.68 205.645 144.6 205.645 142.44C205.645 140.352 204.277 139.308 201.541 139.308H195.133V145.68H201.541ZM233.225 144.6H221.525L219.293 150H213.317L224.549 124.8H230.309L241.577 150H235.457L233.225 144.6ZM231.389 140.172L227.393 130.524L223.397 140.172H231.389ZM255.827 124.8C258.059 124.8 259.991 125.172 261.623 125.916C263.279 126.66 264.551 127.716 265.439 129.084C266.327 130.452 266.771 132.072 266.771 133.944C266.771 135.792 266.327 137.412 265.439 138.804C264.551 140.172 263.279 141.228 261.623 141.972C259.991 142.692 258.059 143.052 255.827 143.052H250.751V150H244.919V124.8H255.827ZM255.503 138.3C257.255 138.3 258.587 137.928 259.499 137.184C260.411 136.416 260.867 135.336 260.867 133.944C260.867 132.528 260.411 131.448 259.499 130.704C258.587 129.936 257.255 129.552 255.503 129.552H250.751V138.3H255.503ZM289.175 129.552H281.111V150H275.351V129.552H267.323V124.8H289.175V129.552ZM292.837 124.8H298.633V141.216L310.657 124.8H316.129V150H310.369V133.62L298.345 150H292.837V124.8ZM333.311 124.8C335.543 124.8 337.475 125.172 339.107 125.916C340.763 126.66 342.035 127.716 342.923 129.084C343.811 130.452 344.255 132.072 344.255 133.944C344.255 135.792 343.811 137.412 342.923 138.804C342.035 140.172 340.763 141.228 339.107 141.972C337.475 142.692 335.543 143.052 333.311 143.052H328.235V150H322.403V124.8H333.311ZM332.987 138.3C334.739 138.3 336.071 137.928 336.983 137.184C337.895 136.416 338.351 135.336 338.351 133.944C338.351 132.528 337.895 131.448 336.983 130.704C336.071 129.936 334.739 129.552 332.987 129.552H328.235V138.3H332.987ZM360.307 133.08C363.379 133.08 365.731 133.764 367.363 135.132C369.019 136.5 369.847 138.528 369.847 141.216C369.847 144.072 368.935 146.256 367.111 147.768C365.311 149.256 362.767 150 359.479 150H348.103V124.8H353.899V133.08H360.307ZM359.155 145.68C360.667 145.68 361.843 145.308 362.683 144.564C363.547 143.82 363.979 142.74 363.979 141.324C363.979 138.708 362.371 137.4 359.155 137.4H353.899V145.68H359.155ZM373.051 124.8H378.847V150H373.051V124.8Z" fill="white"/>
<path d="M160.107 198.368C162.435 198.368 164.439 198.848 166.119 199.808C167.799 200.768 169.095 202.172 170.007 204.02C170.919 205.844 171.375 208.124 171.375 210.86C171.375 213.764 170.823 216.224 169.719 218.24C168.639 220.256 167.139 221.792 165.219 222.848C163.299 223.904 161.067 224.432 158.523 224.432C157.203 224.432 155.931 224.288 154.707 224C153.483 223.712 152.427 223.28 151.539 222.704L153.699 218.42C154.395 218.9 155.139 219.236 155.931 219.428C156.723 219.596 157.551 219.68 158.415 219.68C160.575 219.68 162.291 219.02 163.563 217.7C164.859 216.38 165.507 214.424 165.507 211.832C165.507 211.4 165.495 210.92 165.471 210.392C165.447 209.864 165.387 209.336 165.291 208.808L166.875 210.32C166.467 211.256 165.891 212.048 165.147 212.696C164.403 213.32 163.539 213.8 162.555 214.136C161.571 214.448 160.467 214.604 159.243 214.604C157.635 214.604 156.171 214.28 154.851 213.632C153.555 212.984 152.511 212.072 151.719 210.896C150.951 209.72 150.567 208.34 150.567 206.756C150.567 205.028 150.987 203.54 151.827 202.292C152.691 201.044 153.843 200.084 155.283 199.412C156.747 198.716 158.355 198.368 160.107 198.368ZM160.467 202.724C159.627 202.724 158.895 202.88 158.271 203.192C157.647 203.48 157.155 203.912 156.795 204.488C156.435 205.04 156.255 205.7 156.255 206.468C156.255 207.62 156.639 208.544 157.407 209.24C158.199 209.912 159.243 210.248 160.539 210.248C161.379 210.248 162.123 210.092 162.771 209.78C163.443 209.444 163.959 208.988 164.319 208.412C164.679 207.836 164.859 207.188 164.859 206.468C164.859 205.748 164.679 205.112 164.319 204.56C163.983 203.984 163.491 203.54 162.843 203.228C162.195 202.892 161.403 202.724 160.467 202.724ZM178.099 224L188.251 201.032L189.763 203.552H176.191L178.783 200.816V207.656H173.599V198.8H193.795V202.58L184.435 224H178.099ZM205.247 198.368C207.575 198.368 209.579 198.848 211.259 199.808C212.939 200.768 214.235 202.172 215.147 204.02C216.059 205.844 216.515 208.124 216.515 210.86C216.515 213.764 215.963 216.224 214.859 218.24C213.779 220.256 212.279 221.792 210.359 222.848C208.439 223.904 206.207 224.432 203.663 224.432C202.343 224.432 201.071 224.288 199.847 224C198.623 223.712 197.567 223.28 196.679 222.704L198.839 218.42C199.535 218.9 200.279 219.236 201.071 219.428C201.863 219.596 202.691 219.68 203.555 219.68C205.715 219.68 207.431 219.02 208.703 217.7C209.999 216.38 210.647 214.424 210.647 211.832C210.647 211.4 210.635 210.92 210.611 210.392C210.587 209.864 210.527 209.336 210.431 208.808L212.015 210.32C211.607 211.256 211.031 212.048 210.287 212.696C209.543 213.32 208.679 213.8 207.695 214.136C206.711 214.448 205.607 214.604 204.383 214.604C202.775 214.604 201.311 214.28 199.991 213.632C198.695 212.984 197.651 212.072 196.859 210.896C196.091 209.72 195.707 208.34 195.707 206.756C195.707 205.028 196.127 203.54 196.967 202.292C197.831 201.044 198.983 200.084 200.423 199.412C201.887 198.716 203.495 198.368 205.247 198.368ZM205.607 202.724C204.767 202.724 204.035 202.88 203.411 203.192C202.787 203.48 202.295 203.912 201.935 204.488C201.575 205.04 201.395 205.7 201.395 206.468C201.395 207.62 201.779 208.544 202.547 209.24C203.339 209.912 204.383 210.248 205.679 210.248C206.519 210.248 207.263 210.092 207.911 209.78C208.583 209.444 209.099 208.988 209.459 208.412C209.819 207.836 209.999 207.188 209.999 206.468C209.999 205.748 209.819 205.112 209.459 204.56C209.123 203.984 208.631 203.54 207.983 203.228C207.335 202.892 206.543 202.724 205.607 202.724ZM219.887 216.116V211.616H230.075V216.116H219.887ZM240.774 224.432C239.022 224.432 237.282 224.204 235.554 223.748C233.826 223.268 232.362 222.596 231.162 221.732L233.43 217.268C234.39 217.964 235.506 218.516 236.778 218.924C238.05 219.332 239.334 219.536 240.63 219.536C242.094 219.536 243.246 219.248 244.086 218.672C244.926 218.096 245.346 217.304 245.346 216.296C245.346 215.336 244.974 214.58 244.23 214.028C243.486 213.476 242.286 213.2 240.63 213.2H237.966V209.348L244.986 201.392L245.634 203.48H232.422V198.8H250.062V202.58L243.078 210.536L240.126 208.844H241.818C244.914 208.844 247.254 209.54 248.838 210.932C250.422 212.324 251.214 214.112 251.214 216.296C251.214 217.712 250.842 219.044 250.098 220.292C249.354 221.516 248.214 222.512 246.678 223.28C245.142 224.048 243.174 224.432 240.774 224.432ZM261.903 224.432C260.151 224.432 258.411 224.204 256.683 223.748C254.955 223.268 253.491 222.596 252.291 221.732L254.559 217.268C255.519 217.964 256.635 218.516 257.907 218.924C259.179 219.332 260.463 219.536 261.759 219.536C263.223 219.536 264.375 219.248 265.215 218.672C266.055 218.096 266.475 217.304 266.475 216.296C266.475 215.336 266.103 214.58 265.359 214.028C264.615 213.476 263.415 213.2 261.759 213.2H259.095V209.348L266.115 201.392L266.763 203.48H253.551V198.8H271.191V202.58L264.207 210.536L261.255 208.844H262.947C266.043 208.844 268.383 209.54 269.967 210.932C271.551 212.324 272.343 214.112 272.343 216.296C272.343 217.712 271.971 219.044 271.227 220.292C270.483 221.516 269.343 222.512 267.807 223.28C266.271 224.048 264.303 224.432 261.903 224.432ZM283.032 224.432C281.28 224.432 279.54 224.204 277.812 223.748C276.084 223.268 274.62 222.596 273.42 221.732L275.688 217.268C276.648 217.964 277.764 218.516 279.036 218.924C280.308 219.332 281.592 219.536 282.888 219.536C284.352 219.536 285.504 219.248 286.344 218.672C287.184 218.096 287.604 217.304 287.604 216.296C287.604 215.336 287.232 214.58 286.488 214.028C285.744 213.476 284.544 213.2 282.888 213.2H280.224V209.348L287.244 201.392L287.892 203.48H274.68V198.8H292.32V202.58L285.336 210.536L282.384 208.844H284.076C287.172 208.844 289.512 209.54 291.096 210.932C292.68 212.324 293.472 214.112 293.472 216.296C293.472 217.712 293.1 219.044 292.356 220.292C291.612 221.516 290.472 222.512 288.936 223.28C287.4 224.048 285.432 224.432 283.032 224.432Z" fill="white"/>
<path d="M133.804 207L136.804 210M139.804 207H133.804H139.804ZM133.804 207L136.804 204L133.804 207Z" stroke="white" stroke-width="1.5" stroke-linecap="round" stroke-linejoin="round"/>
<path d="M135.922 216.702L131.804 217.5C129.022 216.104 127.304 214.5 126.304 212L127.074 207.87L125.619 204H121.868C120.74 204 119.852 204.932 120.021 206.047C120.441 208.83 121.681 213.877 125.304 217.5C129.109 221.305 134.59 222.956 137.606 223.613C138.771 223.866 139.804 222.958 139.804 221.765V218.181L135.922 216.702V216.702Z" stroke="white" stroke-width="1.5" stroke-linecap="round" stroke-linejoin="round"/>
<path d="M2 30.2432L1.71225 28.2641L0 28.513V30.2432H2ZM2 211H0V213H2V211ZM196.263 2L196.523 0.0169216L196.249 -0.0189426L195.975 0.020808L196.263 2ZM412 211V213H414V211H412ZM56.933 209H2V213H56.933V209ZM4 211V30.2432H0V211H4ZM410 52.547V211H414V52.547H410ZM412 209H360.063V213H412V209ZM2.28775 32.2224L196.551 3.97919L195.975 0.020808L1.71225 28.2641L2.28775 32.2224ZM196.003 3.98308L411.74 32.2263L412.26 28.2602L196.523 0.0169216L196.003 3.98308Z" fill="url(#paint0_linear_281_678)"/>
<defs>
<linearGradient id="paint0_linear_281_678" x1="-42.4729" y1="51.7155" x2="416.035" y2="51.1811" gradientUnits="userSpaceOnUse">
<stop offset="0.0387986" stop-color="#FF184F"/>
<stop offset="1" stop-color="#FFCA41"/>
</linearGradient>
</defs>
</svg>
