<svg width="335" height="229" viewBox="0 0 335 229" fill="none" xmlns="http://www.w3.org/2000/svg">
<g filter="url(#filter0_d_373_693)">
<path d="M85.6666 165.772L42.3333 125.571L35.6666 86.3833L23.6666 76.2911L11.6666 66.5648L206.333 7.55908H217L317.667 93.7983L323.667 149.562L260.333 170.96L265 176.795L228.333 189.115L222.333 183.28L136.333 213.755L108.333 187.818L104.333 191.061L81 169.014L85.6666 165.772Z" fill="url(#paint0_linear_373_693)" fill-opacity="0.6" shape-rendering="crispEdges"/>
<path d="M136.333 213.755L108.333 187.818L104.333 191.061L81 169.014L85.6666 165.772L42.3333 125.571L35.6666 86.3833M136.333 213.755L128.333 158.64M136.333 213.755L222.333 183.28L228.333 189.115L265 176.795L260.333 170.96L323.667 149.562L317.667 93.7983M128.333 158.64L121 161.233M128.333 158.64L317.667 93.7983M121 161.233L175 23.121M121 161.233L35.6666 86.3833M175 23.121L11.6666 66.5648M175 23.121L217 7.55908M11.6666 66.5648L206.333 7.55908H217M11.6666 66.5648L23.6666 76.2911L35.6666 86.3833M317.667 93.7983L217 7.55908" stroke="#FFC7C7" stroke-width="1.5" shape-rendering="crispEdges"/>
</g>
<defs>
<filter id="filter0_d_373_693" x="0.0959473" y="0.809082" width="334.381" height="227.804" filterUnits="userSpaceOnUse" color-interpolation-filters="sRGB">
<feFlood flood-opacity="0" result="BackgroundImageFix"/>
<feColorMatrix in="SourceAlpha" type="matrix" values="0 0 0 0 0 0 0 0 0 0 0 0 0 0 0 0 0 0 127 0" result="hardAlpha"/>
<feOffset dy="4"/>
<feGaussianBlur stdDeviation="5"/>
<feComposite in2="hardAlpha" operator="out"/>
<feColorMatrix type="matrix" values="0 0 0 0 1 0 0 0 0 1 0 0 0 0 1 0 0 0 0.6 0"/>
<feBlend mode="normal" in2="BackgroundImageFix" result="effect1_dropShadow_373_693"/>
<feBlend mode="normal" in="SourceGraphic" in2="effect1_dropShadow_373_693" result="shape"/>
</filter>
<linearGradient id="paint0_linear_373_693" x1="-22.1762" y1="56.6076" x2="326.738" y2="56.2939" gradientUnits="userSpaceOnUse">
<stop offset="0.0387986" stop-color="#FF184F"/>
<stop offset="1" stop-color="#FFCA41"/>
</linearGradient>
</defs>
</svg>
