<svg width="313" height="211" viewBox="0 0 313 211" fill="none" xmlns="http://www.w3.org/2000/svg">
<g filter="url(#filter0_d_373_686)">
<path d="M60.332 142.957L16.9987 123.504L20.9987 76.5415L10.9987 72.2795V67.0922L163.665 7.43799L214.332 11.3285L301.665 96.2708L296.332 142.957L184.332 196.127L98.332 159.167L94.332 161.761L58.332 145.55L60.332 142.957Z" fill="url(#paint0_linear_373_686)" fill-opacity="0.6" shape-rendering="crispEdges"/>
<path d="M184.332 196.127L98.332 159.167L94.332 161.761L58.332 145.55L60.332 142.957L16.9987 123.504L20.9987 76.5415M184.332 196.127L188.999 146.199M184.332 196.127L296.332 142.957L301.665 96.2708M188.999 146.199L194.332 148.144M188.999 146.199L20.9987 76.5415M10.9987 67.0922V72.2795L20.9987 76.5415M10.9987 67.0922L179.665 24.2968M10.9987 67.0922L163.665 7.43799L214.332 11.3285M179.665 24.2968L194.332 148.144M179.665 24.2968L214.332 11.3285M194.332 148.144L301.665 96.2708M301.665 96.2708L214.332 11.3285" stroke="#FFC7C7" stroke-width="1.5" shape-rendering="crispEdges"/>
</g>
<defs>
<filter id="filter0_d_373_686" x="0.248657" y="0.677002" width="312.204" height="210.273" filterUnits="userSpaceOnUse" color-interpolation-filters="sRGB">
<feFlood flood-opacity="0" result="BackgroundImageFix"/>
<feColorMatrix in="SourceAlpha" type="matrix" values="0 0 0 0 0 0 0 0 0 0 0 0 0 0 0 0 0 0 127 0" result="hardAlpha"/>
<feOffset dy="4"/>
<feGaussianBlur stdDeviation="5"/>
<feComposite in2="hardAlpha" operator="out"/>
<feColorMatrix type="matrix" values="0 0 0 0 1 0 0 0 0 1 0 0 0 0 1 0 0 0 0.6 0"/>
<feBlend mode="normal" in2="BackgroundImageFix" result="effect1_dropShadow_373_686"/>
<feBlend mode="normal" in="SourceGraphic" in2="effect1_dropShadow_373_686" result="shape"/>
</filter>
<linearGradient id="paint0_linear_373_686" x1="-20.5301" y1="52.322" x2="304.526" y2="52.0245" gradientUnits="userSpaceOnUse">
<stop offset="0.0387986" stop-color="#FF184F"/>
<stop offset="1" stop-color="#FFCA41"/>
</linearGradient>
</defs>
</svg>
