<svg width="351" height="238" viewBox="0 0 351 238" fill="none" xmlns="http://www.w3.org/2000/svg">
<g filter="url(#filter0_d_373_696)">
<path d="M11.9999 66.7665L158 11.0028L242.667 7.1123L339.333 100.484L334.667 153.006L188.667 223.034L102 174.403L97.3332 177.645L61.9999 156.896L65.9999 153.654L23.3332 131.608L25.9999 74.6713L11.9999 66.7665Z" fill="url(#paint0_linear_373_696)" fill-opacity="0.6" shape-rendering="crispEdges"/>
<path d="M11.9999 66.7665L158 11.0028L242.667 7.1123M11.9999 66.7665L195.333 23.9711M11.9999 66.7665L25.9999 74.6713M190 167.271L339.333 100.484M190 167.271L195.333 23.9711M190 167.271L188.667 223.034M190 167.271L25.9999 74.6713M339.333 100.484L242.667 7.1123M339.333 100.484L334.667 153.006L188.667 223.034M242.667 7.1123L195.333 23.9711M188.667 223.034L102 174.403L97.3332 177.645L61.9999 156.896L65.9999 153.654L23.3332 131.608L25.9999 74.6713" stroke="#FFC7C7" stroke-width="1.5" shape-rendering="crispEdges"/>
</g>
<defs>
<filter id="filter0_d_373_696" x="0.241821" y="0.348145" width="349.87" height="237.531" filterUnits="userSpaceOnUse" color-interpolation-filters="sRGB">
<feFlood flood-opacity="0" result="BackgroundImageFix"/>
<feColorMatrix in="SourceAlpha" type="matrix" values="0 0 0 0 0 0 0 0 0 0 0 0 0 0 0 0 0 0 127 0" result="hardAlpha"/>
<feOffset dy="4"/>
<feGaussianBlur stdDeviation="5"/>
<feComposite in2="hardAlpha" operator="out"/>
<feColorMatrix type="matrix" values="0 0 0 0 1 0 0 0 0 1 0 0 0 0 1 0 0 0 0.6 0"/>
<feBlend mode="normal" in2="BackgroundImageFix" result="effect1_dropShadow_373_696"/>
<feBlend mode="normal" in="SourceGraphic" in2="effect1_dropShadow_373_696" result="shape"/>
</filter>
<linearGradient id="paint0_linear_373_696" x1="-23.5061" y1="58.4745" x2="342.555" y2="58.1447" gradientUnits="userSpaceOnUse">
<stop offset="0.0387986" stop-color="#FF184F"/>
<stop offset="1" stop-color="#FFCA41"/>
</linearGradient>
</defs>
</svg>
