<svg width="310" height="215" viewBox="0 0 310 215" fill="none" xmlns="http://www.w3.org/2000/svg">
<g filter="url(#filter0_d_373_692)">
<path d="M10.3333 56.9106L179 6.98267L299 83.4956V88.683L287 92.5734L290.333 143.798L221 167.141L226.333 171.68L191.667 184L185.667 178.164L125.667 199.562L119.667 143.798L18.9999 57.559L10.3333 56.9106Z" fill="url(#paint0_linear_373_692)" fill-opacity="0.6" shape-rendering="crispEdges"/>
<path d="M179 6.98267L10.3333 56.9106L18.9999 57.559M179 6.98267L299 83.4956M179 6.98267L125 27.7319M18.9999 57.559L119.667 143.798M18.9999 57.559L125 27.7319M119.667 143.798L299 83.4956M119.667 143.798L125.667 199.562L185.667 178.164L191.667 184L226.333 171.68L221 167.141L290.333 143.798L287 92.5734L299 88.683V83.4956M299 83.4956L125 27.7319" stroke="#FFC7C7" stroke-width="1.5" shape-rendering="crispEdges"/>
</g>
<defs>
<filter id="filter0_d_373_692" x="0.120361" y="0.166504" width="309.63" height="214.421" filterUnits="userSpaceOnUse" color-interpolation-filters="sRGB">
<feFlood flood-opacity="0" result="BackgroundImageFix"/>
<feColorMatrix in="SourceAlpha" type="matrix" values="0 0 0 0 0 0 0 0 0 0 0 0 0 0 0 0 0 0 127 0" result="hardAlpha"/>
<feOffset dy="4"/>
<feGaussianBlur stdDeviation="5"/>
<feComposite in2="hardAlpha" operator="out"/>
<feColorMatrix type="matrix" values="0 0 0 0 1 0 0 0 0 1 0 0 0 0 1 0 0 0 0.6 0"/>
<feBlend mode="normal" in2="BackgroundImageFix" result="effect1_dropShadow_373_692"/>
<feBlend mode="normal" in="SourceGraphic" in2="effect1_dropShadow_373_692" result="shape"/>
</filter>
<linearGradient id="paint0_linear_373_692" x1="-20.9786" y1="52.7922" x2="301.841" y2="52.5046" gradientUnits="userSpaceOnUse">
<stop offset="0.0387986" stop-color="#FF184F"/>
<stop offset="1" stop-color="#FFCA41"/>
</linearGradient>
</defs>
</svg>
