<svg width="265" height="181" viewBox="0 0 265 181" fill="none" xmlns="http://www.w3.org/2000/svg">
<g filter="url(#filter0_d_373_691)">
<path d="M235.666 121.85L182.999 140.654L188.332 145.193L160.332 154.919L153.666 149.732L108.999 165.942L106.999 119.256L25.6656 38.8529H10.9989L116.332 7.729L252.332 69.9768L235.666 75.6282V121.85Z" fill="url(#paint0_linear_373_691)" fill-opacity="0.6" shape-rendering="crispEdges"/>
<path d="M106.999 119.256L108.999 165.942L153.666 149.732L160.332 154.919L188.332 145.193L182.999 140.654L235.666 121.85V75.6282M106.999 119.256L25.6656 38.8529M106.999 119.256L235.666 75.6282M252.332 69.9768L96.9989 18.1036M252.332 69.9768L116.332 7.729M252.332 69.9768L235.666 75.6282M96.9989 18.1036L116.332 7.729M96.9989 18.1036L25.6656 38.8529M116.332 7.729L10.9989 38.8529H25.6656" stroke="#FFC7C7" stroke-width="1.5" shape-rendering="crispEdges"/>
</g>
<defs>
<filter id="filter0_d_373_691" x="0.786377" y="0.930176" width="263.575" height="180.066" filterUnits="userSpaceOnUse" color-interpolation-filters="sRGB">
<feFlood flood-opacity="0" result="BackgroundImageFix"/>
<feColorMatrix in="SourceAlpha" type="matrix" values="0 0 0 0 0 0 0 0 0 0 0 0 0 0 0 0 0 0 127 0" result="hardAlpha"/>
<feOffset dy="4"/>
<feGaussianBlur stdDeviation="5"/>
<feComposite in2="hardAlpha" operator="out"/>
<feColorMatrix type="matrix" values="0 0 0 0 1 0 0 0 0 1 0 0 0 0 1 0 0 0 0.6 0"/>
<feBlend mode="normal" in2="BackgroundImageFix" result="effect1_dropShadow_373_691"/>
<feBlend mode="normal" in="SourceGraphic" in2="effect1_dropShadow_373_691" result="shape"/>
</filter>
<linearGradient id="paint0_linear_373_691" x1="-15.1787" y1="45.3637" x2="254.708" y2="45.1191" gradientUnits="userSpaceOnUse">
<stop offset="0.0387986" stop-color="#FF184F"/>
<stop offset="1" stop-color="#FFCA41"/>
</linearGradient>
</defs>
</svg>
